<?xml version="1.0" encoding="UTF-8"?>
<!-- Generator: visioncortex VTracer 0.6.2 -->
<svg version="1.1" xmlns="http://www.w3.org/2000/svg" width="1280" height="159">
<path d="M0 0 C422.4 0 844.8 0 1280 0 C1280 52.47 1280 104.94 1280 159 C857.6 159 435.2 159 0 159 C0 106.53 0 54.06 0 0 Z " fill="#FCFDFF" transform="translate(0,0)"/>
<path d="M0 0 C0.89715729 -0.00807175 1.79431458 -0.01614349 2.71865845 -0.02445984 C4.62345452 -0.0382983 6.52827536 -0.04902152 8.43310547 -0.05688477 C10.36091492 -0.06833486 12.28869445 -0.08867425 14.21630859 -0.1184082 C40.35891999 -0.52146828 40.35891999 -0.52146828 50.4765625 7.48828125 C56.83174144 13.84346019 59.66366662 19.16628025 60.04296875 28.26953125 C59.9086757 34.27322059 59.48356879 38.58775055 55.3515625 43.11328125 C54.5678125 43.81453125 53.7840625 44.51578125 52.9765625 45.23828125 C52.9765625 46.22828125 52.9765625 47.21828125 52.9765625 48.23828125 C54.16080775 49.38869093 55.34531254 50.53883486 56.53125 51.6875 C61.48052277 56.99793592 63.32164893 62.0484856 63.5390625 69.30078125 C63.24723617 76.82341557 61.51175778 81.29197322 56.6640625 86.92578125 C55.33375 88.07046875 55.33375 88.07046875 53.9765625 89.23828125 C53.23986328 89.88603516 53.23986328 89.88603516 52.48828125 90.546875 C44.53884669 96.94057296 34.53550199 97.70498147 24.68359375 97.70703125 C23.65272141 97.71464478 22.62184906 97.7222583 21.55973816 97.73010254 C19.39930628 97.74082555 17.23882288 97.74378876 15.07836914 97.73925781 C11.78639603 97.73828046 8.49671896 97.78009816 5.20507812 97.82421875 C3.09375481 97.82942327 0.98242348 97.83211398 -1.12890625 97.83203125 C-2.10304977 97.84842651 -3.0771933 97.86482178 -4.08085632 97.88171387 C-10.5486649 97.81664034 -15.07372723 96.54289126 -20.0234375 92.23828125 C-23.10082749 87.02009822 -23.14868198 80.59310676 -23.20043945 74.65722656 C-23.21327469 73.36858704 -23.22610992 72.07994751 -23.23933411 70.7522583 C-23.24750361 69.35697825 -23.25494694 67.96169378 -23.26171875 66.56640625 C-23.26783204 65.50115849 -23.26783204 65.50115849 -23.27406883 64.41439056 C-23.29485952 60.65516967 -23.30919122 56.89598452 -23.31860352 53.13671875 C-23.32965302 49.27912351 -23.36405557 45.42210739 -23.40377522 41.56471634 C-23.43006986 38.57561256 -23.43830663 35.58664423 -23.44188499 32.597435 C-23.4467179 31.17662393 -23.45823639 29.75581755 -23.47692299 28.33512115 C-23.57790433 20.14912115 -23.5432419 12.35984362 -19.0234375 5.23828125 C-13.37484609 0.41569724 -7.10261972 0.06083552 0 0 Z " fill="#000102" transform="translate(49.0234375,17.76171875)"/>
<path d="M0 0 C2.375 2.1875 2.375 2.1875 4 4 C7.63554483 3.58983597 10.71158354 2.34761417 14.0625 0.9375 C21.20798171 -1.70825945 28.28470408 -2.39323597 35.5 0.3125 C36.325 0.869375 37.15 1.42625 38 2 C39.175625 2.7734375 39.175625 2.7734375 40.375 3.5625 C40.91125 4.036875 41.4475 4.51125 42 5 C42 5.66 42 6.32 42 7 C42.83402344 6.59007812 43.66804687 6.18015625 44.52734375 5.7578125 C55.71982776 0.39875372 66.97498806 -3.62545802 79.4375 0 C84.95894232 4.3094184 87.56747011 10.24348807 89 17 C89.27861682 19.90776621 89.30423726 22.79512853 89.30078125 25.71484375 C89.30506638 26.52941544 89.3093515 27.34398712 89.31376648 28.1832428 C89.31947964 29.89681066 89.32003242 31.61040276 89.31567383 33.32397461 C89.31251312 35.92669541 89.33601263 38.52827863 89.36132812 41.13085938 C89.36360157 42.80468608 89.3643044 44.47851581 89.36328125 46.15234375 C89.372491 46.9202977 89.38170074 47.68825165 89.39118958 48.47947693 C89.34042058 54.49135479 88.3693283 60.2990727 84.26953125 64.97265625 C78.66675342 67.50885344 70.40370137 66.95325181 64.53125 65.30859375 C61.5562438 63.80218171 60.15468308 62.36355134 58.85351562 59.30541992 C57.91681897 55.67786384 57.71232252 52.48281386 57.65625 48.73828125 C57.6416272 48.06580856 57.62700439 47.39333588 57.61193848 46.70048523 C57.55010857 43.84762764 57.50997065 40.994569 57.46826172 38.14135742 C57.43453174 36.04843588 57.38945021 33.95597008 57.34375 31.86328125 C57.32505859 30.61844971 57.30636719 29.37361816 57.28710938 28.09106445 C57.23142217 24.83214896 57.23142217 24.83214896 55 22 C51.91634129 21.7497843 51.91634129 21.7497843 49 22 C46.77950372 29.4997485 46.62836736 36.64172875 46.52148438 44.42382812 C46.32072681 51.81268584 45.56627899 58.37701789 41.20703125 64.53125 C36.70323014 67.52846985 31.16975198 66.6407226 26 66 C22.55032266 64.78380403 19.69929739 63.39859479 18 60 C17.86762094 57.50714029 17.79018746 55.03751607 17.75390625 52.54296875 C17.72095876 51.0227809 17.68774727 49.50259875 17.65429688 47.98242188 C17.60695667 45.58622278 17.56254179 43.19004531 17.52319336 40.79370117 C17.48333475 38.48070839 17.43181559 36.16819474 17.37890625 33.85546875 C17.3704921 33.14384079 17.36207794 32.43221283 17.35340881 31.69902039 C17.25497337 27.71314434 16.74741322 24.59576479 15 21 C13.88625 21.350625 12.7725 21.70125 11.625 22.0625 C10.99851562 22.25972656 10.37203125 22.45695312 9.7265625 22.66015625 C6.93175605 24.82897664 6.79407519 27.63410443 6 31 C5.83835477 33.27951077 5.76091579 35.56632775 5.76171875 37.8515625 C5.74560547 39.11484375 5.72949219 40.378125 5.71289062 41.6796875 C5.69591358 44.31765885 5.69077444 46.95573201 5.69726562 49.59375 C5.67728516 50.85445312 5.65730469 52.11515625 5.63671875 53.4140625 C5.63373779 54.5582666 5.63075684 55.7024707 5.62768555 56.88134766 C4.81443722 60.9219677 3.12164779 62.40280319 0 65 C-3.03156857 66.51578428 -5.87966614 66.24971927 -9.25 66.3125 C-10.55453125 66.34988281 -11.8590625 66.38726562 -13.203125 66.42578125 C-17.61830626 65.93066319 -19.66211284 64.8984316 -23 62 C-25.78791017 57.17593563 -25.30578871 51.84461793 -25.30078125 46.44140625 C-25.30506638 45.41949692 -25.3093515 44.39758759 -25.31376648 43.3447113 C-25.31950026 41.18709045 -25.32001707 39.02945027 -25.31567383 36.87182617 C-25.31251451 33.57762561 -25.3359833 30.28432396 -25.36132812 26.99023438 C-25.36360133 24.89062613 -25.36430452 22.79101548 -25.36328125 20.69140625 C-25.372491 19.70999161 -25.38170074 18.72857697 -25.39118958 17.71742249 C-25.35527292 12.38721062 -25.01394921 8.59465056 -22 4 C-15.26094865 -2.55691483 -8.6522584 -2.73444015 0 0 Z " fill="#000102" transform="translate(821,49)"/>
<path d="M0 0 C0.38285156 -0.93392578 0.38285156 -0.93392578 0.7734375 -1.88671875 C2.55655687 -4.95890849 4.51160601 -5.44069511 7.77734375 -6.53125 C12.84923122 -7.60089235 18.58619705 -6.69732403 23 -4 C27.28691858 1.91020264 27.57785314 6.6675553 27.49609375 13.83984375 C27.49754898 14.87959854 27.49900421 15.91935333 27.50050354 16.99061584 C27.49884793 19.18851525 27.48732469 21.38642665 27.46655273 23.58422852 C27.43786072 26.89586586 27.44590048 30.2058725 27.45898438 33.51757812 C27.42484024 69.27253956 27.42484024 69.27253956 16.078125 82.1875 C7.23070131 90.41766157 -2.44210449 91.31834173 -14.171875 91.21484375 C-25.56292578 90.57555008 -34.30602798 86.37285191 -42 78 C-42.66 77.34 -43.32 76.68 -44 76 C-44.4667512 72.42157414 -44.40228636 70.62756672 -42.4375 67.5625 C-39.71002772 65.81412033 -38.26285895 65.67129542 -35.109375 66.3046875 C-32.50417749 67.16343779 -30.14604529 68.34711744 -27.6875 69.5625 C-22.33039217 72.10473136 -17.87796781 72.97612462 -12 72 C-8.9422284 70.7259285 -7.5669583 69.80994043 -5.6875 67.125 C-4.88731313 64.65169514 -4.85645373 62.58383294 -5 60 C-6.794375 60.495 -6.794375 60.495 -8.625 61 C-17.94086285 63.00987907 -27.40205874 63.57765894 -35.81640625 58.58984375 C-44.2655496 52.43814188 -47.16882575 45.19135671 -49 35 C-50.21474978 23.08716973 -48.14915205 10.8351329 -41 1 C-28.26544273 -12.73267122 -14.08385304 -7.77250103 0 0 Z " fill="#000102" transform="translate(1062,54)"/>
<path d="M0 0 C1.66194738 0.67834587 3.32598903 1.35199575 5 2 C5.9590625 1.071875 5.9590625 1.071875 6.9375 0.125 C11.49482419 -3.03722495 15.87326809 -4.43524108 21.44140625 -3.66015625 C25.55142135 -2.51585221 27.62453731 -1.42239552 30.5 1.8125 C33.30305123 7.76898387 33.15942339 13.81724275 33.16796875 20.2734375 C33.17296135 21.59729965 33.17296135 21.59729965 33.17805481 22.94790649 C33.1831004 24.8086902 33.18546387 26.66948289 33.18530273 28.53027344 C33.18748755 31.35887742 33.2056639 34.18708997 33.22460938 37.015625 C33.22754423 38.83072784 33.22952841 40.64583253 33.23046875 42.4609375 C33.23765427 43.29764984 33.24483978 44.13436218 33.25224304 44.99642944 C33.23014956 50.74760447 33.11042156 57.15551876 29.5625 61.9375 C25.97688867 64.3757157 22.38270143 64.1963872 18.1875 64.25 C16.38345703 64.28867188 16.38345703 64.28867188 14.54296875 64.328125 C10.69438506 63.97169608 8.4066976 62.72948107 5 61 C2.8859847 61.11571294 2.8859847 61.11571294 1 62 C-7.91041699 65.16705429 -16.55500823 66.60671888 -25.8125 63.875 C-26.864375 63.25625 -27.91625 62.6375 -29 62 C-29.66644531 61.60941406 -30.33289063 61.21882813 -31.01953125 60.81640625 C-37.67469435 56.45783005 -40.72756616 50.78994727 -42.74609375 43.19140625 C-45.53156186 29.34090622 -43.57606366 15.69209924 -35.875 3.6875 C-24.81267418 -6.65336979 -12.90678286 -6.42798438 0 0 Z " fill="#000102" transform="translate(254,51)"/>
<path d="M0 0 C0.9590625 -0.928125 0.9590625 -0.928125 1.9375 -1.875 C6.48282324 -5.02889776 10.88697455 -6.47816071 16.44140625 -5.625 C21.33131505 -4.20716812 24.39267713 -2.56281502 27 2 C27.80474026 5.26846311 28.13202144 8.33547468 28.16113281 11.69506836 C28.17074036 12.59627914 28.1803479 13.49748993 28.19024658 14.42601013 C28.19449646 15.38757523 28.19874634 16.34914032 28.203125 17.33984375 C28.20882507 18.33955704 28.21452515 19.33927032 28.22039795 20.36927795 C28.22982629 22.47981718 28.23637331 24.59037098 28.24023438 26.70092773 C28.24995512 29.92262438 28.28100545 33.14368687 28.3125 36.36523438 C28.31902923 38.41926706 28.32428001 40.47330429 28.328125 42.52734375 C28.3404718 43.48688461 28.3528186 44.44642548 28.36553955 45.43504333 C28.34802486 50.71299006 27.99377521 54.45204221 25 59 C21.13522333 62.18038913 17.91962629 62.40680793 13 62.375 C11.205625 62.38660156 11.205625 62.38660156 9.375 62.3984375 C6 62 6 62 3.375 60.4140625 C1.09523875 58.74443882 1.09523875 58.74443882 -1.53125 59.21484375 C-3.87025317 59.95873558 -6.18665521 60.74253019 -8.5 61.5625 C-15.86862126 63.79841946 -23.41313469 64.05841927 -30.8125 61.875 C-39.12656206 56.98437526 -43.81196695 52.98830099 -47.1875 43.75 C-50.33886111 29.20525643 -49.01878125 15.7780579 -41 3 C-36.9254212 -2.14683638 -31.70104284 -4.76631905 -25.5625 -6.8125 C-16.14822925 -7.50134908 -8.25208553 -4.21101848 0 0 Z " fill="#000102" transform="translate(972,53)"/>
<path d="M0 0 C3.4730936 3.43766937 3.39172233 6.45917034 3.44140625 11.21484375 C3.45461411 11.90759903 3.46782196 12.60035431 3.48143005 13.31410217 C3.52221442 15.52194237 3.54395642 17.72936923 3.5625 19.9375 C3.58635906 22.14193229 3.61460655 24.34597937 3.65428162 26.55018616 C3.68964738 28.55274892 3.70960695 30.55556617 3.72875977 32.55834961 C4.00322697 36.04094565 4.42704982 39.42704982 7 42 C9.33297433 42.04092937 11.66705225 42.04241723 14 42 C16.11309531 38.53800878 16.2516859 35.78320482 16.2734375 31.765625 C16.2940625 30.55132812 16.3146875 29.33703125 16.3359375 28.0859375 C16.36181938 25.54433724 16.38014372 23.00264793 16.390625 20.4609375 C16.52901279 13.18789027 17.01534434 8.15945838 21 2 C25.35903212 -2.09484836 29.75609802 -2.29009857 35.4921875 -2.21484375 C38.94821279 -1.91876682 41.17426516 -0.9986905 44 1 C48.54279025 6.95262171 48.15904618 13.48995436 48.16796875 20.6484375 C48.17296135 22.04456772 48.17296135 22.04456772 48.17805481 23.46890259 C48.18310739 25.43401599 48.18546365 27.39913793 48.18530273 29.36425781 C48.18748728 32.35756692 48.20565545 35.35050612 48.22460938 38.34375 C48.2275441 40.25781125 48.22952837 42.17187423 48.23046875 44.0859375 C48.23765427 44.97469574 48.24483978 45.86345398 48.25224304 46.77914429 C48.22987315 52.91742731 48.1145236 58.61000635 43.87109375 63.40625 C40.22900648 65.42798008 37.12171418 65.59045603 33.0625 65.5 C32.02706055 65.52320312 32.02706055 65.52320312 30.97070312 65.546875 C25.83479325 65.50792971 23.00511088 64.10381171 19 61 C18.01 60.505 18.01 60.505 17 60 C14.70005031 60.73837877 14.70005031 60.73837877 12.1875 61.875 C3.44226614 65.6588682 -7.69119189 67.06901771 -16.90625 64.046875 C-22.37709969 60.87378218 -24.45824659 56.89494819 -26.34375 50.9765625 C-29.615243 36.13800495 -30.77844472 14.43899608 -23 1 C-15.75497392 -4.38732708 -7.87805265 -4.24202835 0 0 Z " fill="#000102" transform="translate(598,50)"/>
<path d="M0 0 C3.39051538 2.86074735 3.94120885 4.99443063 4.31884766 9.44628906 C4.36027362 10.94833178 4.39142975 12.45068159 4.4140625 13.953125 C4.43342865 14.74652283 4.4527948 15.53992065 4.4727478 16.35736084 C4.53238361 18.88396557 4.57886443 21.41061625 4.625 23.9375 C4.66319455 25.65366537 4.70224715 27.36981187 4.7421875 29.0859375 C4.83807186 33.28630456 4.92216167 37.48676134 5 41.6875 C7.97 42.0175 10.94 42.3475 14 42.6875 C16.7483487 38.77147793 17.36794655 36.1122834 17.37109375 31.35546875 C17.38849609 30.14439453 17.40589844 28.93332031 17.42382812 27.68554688 C17.43290062 25.15691195 17.43814498 22.62826023 17.43945312 20.09960938 C17.55114413 12.83969402 17.97696216 7.81819553 22 1.6875 C27.01375652 -2.22567582 32.90650283 -1.9744424 39 -1.3125 C43.89313343 0.34767027 45.70917829 2.13379001 48 6.6875 C48.38768005 9.26721191 48.38768005 9.26721191 48.40405273 12.04101562 C48.41673691 13.08559937 48.42942108 14.13018311 48.44248962 15.2064209 C48.43955399 16.3242395 48.43661835 17.44205811 48.43359375 18.59375 C48.4388356 19.75120728 48.44407745 20.90866455 48.44947815 22.10119629 C48.45589433 24.54548338 48.45456662 26.98980137 48.44604492 29.43408203 C48.43753059 33.17406116 48.46631172 36.91251528 48.49804688 40.65234375 C48.49965887 43.02864538 48.49908139 45.40494971 48.49609375 47.78125 C48.50732773 48.8990686 48.51856171 50.01688721 48.53013611 51.1685791 C48.46077302 58.89226837 48.46077302 58.89226837 46.15649414 62.86914062 C42.28757451 66.13141997 38.58501499 65.90795966 33.6875 66 C31.74423828 66.05607422 31.74423828 66.05607422 29.76171875 66.11328125 C25.43995405 65.62410954 23.48628817 64.18051566 20 61.6875 C16.4765098 61.6875 15.17656563 61.84432286 12.125 63.125 C3.97906971 66.53837565 -7.17988806 67.54923984 -15.61328125 64.8515625 C-20.7313687 61.97926484 -23.14187348 58.13964172 -25 52.6875 C-26.81363019 45.18724216 -27.31228457 37.87964436 -27.25 30.1875 C-27.25773437 29.23230469 -27.26546875 28.27710937 -27.2734375 27.29296875 C-27.25028739 18.73900457 -26.92224362 8.97971277 -22 1.6875 C-15.34159409 -3.26362234 -7.49593124 -3.27946992 0 0 Z " fill="#000102" transform="translate(327,49.3125)"/>
<path d="M0 0 C4.42565195 5.72731429 7.00772164 10.8844761 6.7109375 18.28125 C5.63597109 22.81044179 2.71712646 25.91520774 -0.875 28.75 C-4.74842072 30.61790617 -7.98967836 31.04236052 -12.26953125 31.1640625 C-13.47158203 31.20273438 -14.67363281 31.24140625 -15.91210938 31.28125 C-17.15798828 31.3121875 -18.40386719 31.343125 -19.6875 31.375 C-21.58532227 31.43300781 -21.58532227 31.43300781 -23.52148438 31.4921875 C-26.63917851 31.58630657 -29.75686914 31.67194361 -32.875 31.75 C-32.27516689 35.0495149 -31.99004683 35.65128913 -29.2890625 37.96875 C-22.43529042 41.54463109 -13.65969752 40.74793447 -6.3046875 38.80859375 C-4.29364581 38.09954097 -2.29777551 37.34436358 -0.328125 36.52734375 C2.38101058 35.66887563 3.54796891 35.59033601 6.125 36.75 C8.125 39.75 8.125 39.75 8.00390625 42.62109375 C6.09002143 49.43452369 -0.16456061 54.8899195 -5.9375 58.75 C-15.71517666 64.14392299 -29.86496284 64.57473189 -40.59765625 61.62890625 C-50.8844357 57.65887988 -59.89835972 52.4597435 -64.8125 42.25 C-67.41700788 34.08058088 -67.15401876 22.60423086 -63.90625 14.6953125 C-58.32255194 4.16242752 -50.16277612 -2.0031321 -38.8671875 -5.5234375 C-25.98246133 -8.65210469 -10.80281569 -8.45437749 0 0 Z " fill="#000102" transform="translate(1167.875,53.25)"/>
<path d="M0 0 C4.37455101 3.79245349 7.69471422 8.22047943 8.3359375 14.05859375 C8.35527344 15.73115234 8.35527344 15.73115234 8.375 17.4375 C8.40335937 18.54996094 8.43171875 19.66242188 8.4609375 20.80859375 C7.80513038 25.34922438 6.07964349 27.43258558 2.44677734 30.1706543 C-3.89903221 33.98477328 -10.79322418 33.66628877 -18 33.75 C-19.25167969 33.77964844 -20.50335938 33.80929688 -21.79296875 33.83984375 C-24.86204241 33.91012788 -27.93037452 33.96303192 -31 34 C-30.40011657 37.29460473 -30.11271958 37.90282206 -27.421875 40.22265625 C-23.54655995 42.23551966 -20.51135518 42.57670665 -16.25 42.4375 C-15.19655396 42.4209436 -15.19655396 42.4209436 -14.12182617 42.40405273 C-9.18466933 42.24585051 -4.7714413 41.46658677 -0.11328125 39.75390625 C2.25389696 38.90942308 4.51192706 38.35662379 7 38 C8.8125 39.0625 8.8125 39.0625 10 41 C10.78732074 44.30674712 10.43851533 46.23772102 8.74609375 49.1796875 C2.56548823 57.6977378 -5.52368748 63.32379 -16 65 C-29.8784186 66.02592006 -41.46400431 64.23402591 -53 56 C-59.57897445 50.27915266 -63.31867028 44.09562994 -64.29296875 35.37890625 C-64.76604412 25.75118322 -62.30169162 15.72964047 -56.3125 8 C-42.61049397 -5.8772235 -16.99690399 -9.58946948 0 0 Z " fill="#000102" transform="translate(189,51)"/>
<path d="M0 0 C4.06744998 2.69402531 7.14659799 5.41192149 9 10 C8.68097423 13.34977063 8.40820361 14.59179639 6 17 C4.21999922 17.35600016 2.42478837 17.63856668 0.625 17.875 C-2.77896505 18.45420871 -4.72857621 18.81905081 -7.625 20.75 C-9.31912508 23.52220468 -9.7848325 25.7724875 -10 29 C-7.86693451 31.13306549 -3.55580151 30.885042 -0.6640625 31.3046875 C2.19214539 32.05014938 3.21304064 32.70577475 5 35 C6.52491998 38.04983996 6.23562548 40.6423369 6 44 C4.26712371 46.5276092 3.12568794 46.96968502 0.1171875 47.6953125 C-0.95273437 47.83710937 -2.02265625 47.97890625 -3.125 48.125 C-6.87922063 48.34096333 -6.87922063 48.34096333 -10 50 C-10.12236852 52.18520618 -10.17984566 54.37409113 -10.2109375 56.5625 C-10.23904745 57.9310007 -10.26771208 59.29949009 -10.296875 60.66796875 C-10.33782859 62.82242003 -10.37471138 64.97666967 -10.40136719 67.13134766 C-10.6615813 86.49038034 -10.6615813 86.49038034 -16.4375 92.5625 C-22.22303293 94.89701329 -28.19575319 95.06785875 -34.2265625 93.375 C-37.49833232 91.81568842 -38.96208091 90.07150457 -40.640625 86.90625 C-43.06400317 79.97284914 -42.58016989 72.26601707 -42.6875 65 C-42.7207203 63.44658657 -42.75521422 61.89319983 -42.79101562 60.33984375 C-42.87538248 56.56004407 -42.94244329 52.7802991 -43 49 C-43.55792236 48.73880371 -44.11584473 48.47760742 -44.69067383 48.20849609 C-45.41794678 47.85867676 -46.14521973 47.50885742 -46.89453125 47.1484375 C-47.61745361 46.80474121 -48.34037598 46.46104492 -49.08520508 46.10693359 C-51 45 -51 45 -52.6875 42.625 C-53.13487397 38.86705867 -52.09366476 37.10672836 -50 34 C-47.04473066 31.783548 -45.71253164 31 -42 31 C-42.03480469 29.84757812 -42.06960938 28.69515625 -42.10546875 27.5078125 C-42.10062201 23.10503191 -41.3827525 19.13140648 -40.3125 14.875 C-40.16361328 14.19824219 -40.01472656 13.52148438 -39.86132812 12.82421875 C-38.60612204 7.73448113 -36.73143078 4.70960955 -33 1 C-23.13746433 -4.82715378 -10.27536292 -4.77387327 0 0 Z " fill="#000102" transform="translate(553,21)"/>
<path d="M0 0 C1.53389097 1.78879413 2.48774567 3.3629956 3.33984375 5.5625 C2.96484375 9.3125 2.96484375 9.3125 2.33984375 12.5625 C-4.39181497 13.31046208 -7.65811872 11.66960914 -13.27734375 8.03515625 C-18.85678988 4.58687561 -23.33316446 4.27127719 -29.66015625 5.5625 C-29.99015625 6.8825 -30.32015625 8.2025 -30.66015625 9.5625 C-27.38786577 10.88480664 -24.10229438 12.15136464 -20.7890625 13.3671875 C-19.88478516 13.70363281 -18.98050781 14.04007813 -18.04882812 14.38671875 C-16.17068901 15.08501788 -14.29047707 15.77776804 -12.40820312 16.46484375 C-4.82480223 19.30389633 1.17661704 21.97285182 5.359375 29.21484375 C7.61085666 34.60584166 8.00637067 40.13443764 6.46484375 45.75 C0.61458049 53.49299549 -5.75757605 58.0989454 -15.2578125 60.11328125 C-19.81901676 60.71550684 -24.31382349 60.78634732 -28.91015625 60.8125 C-29.80089844 60.833125 -30.69164062 60.85375 -31.609375 60.875 C-39.87680289 60.92299668 -47.71507409 59.45690591 -54.59765625 54.625 C-55.30792969 54.14160156 -56.01820312 53.65820312 -56.75 53.16015625 C-58.81308422 51.43459092 -60.26433447 49.86383907 -61.66015625 47.5625 C-61.33288352 41.23522727 -61.33288352 41.23522727 -58.66015625 38.5625 C-52.63341108 37.9167773 -48.54582179 39.11484138 -43.0546875 41.58984375 C-37.91400137 43.67798542 -33.12833425 43.74178452 -27.66015625 43.5625 C-27.00015625 43.2325 -26.34015625 42.9025 -25.66015625 42.5625 C-25.99015625 40.9125 -26.32015625 39.2625 -26.66015625 37.5625 C-27.32660156 37.46453125 -27.99304687 37.3665625 -28.6796875 37.265625 C-39.92730724 35.44083634 -50.81338176 32.06743568 -59.66015625 24.5625 C-62.43382467 19.25965065 -62.5352985 13.92459713 -61.04296875 8.19140625 C-58.7346951 2.13474132 -55.35985581 -1.40751385 -49.66015625 -4.4375 C-33.56971368 -11.10445629 -13.74105495 -12.36358978 0 0 Z " fill="#000102" transform="translate(1248.66015625,55.4375)"/>
<path d="M0 0 C3.99074736 4.30183012 3.51484015 9.7105331 3.625 15.25 C3.67577714 17.06782177 3.73025845 18.88554518 3.7890625 20.703125 C3.80662598 21.50395508 3.82418945 22.30478516 3.84228516 23.12988281 C3.79862966 25.01369073 3.79862966 25.01369073 5 26 C7.48222341 26.28484531 9.96468855 26.44806553 12.45703125 26.62109375 C15.82259736 27.12256827 18.19474314 27.91290324 20.25 30.6875 C21.30228998 33.93206078 21.30781132 36.6140755 21 40 C19.22444061 42.64137987 18.04326715 42.99030031 14.8984375 43.6953125 C13.73570312 43.83710937 12.57296875 43.97890625 11.375 44.125 C7.36543864 44.29787657 7.36543864 44.29787657 4 46 C3.91330568 47.4887186 3.89296506 48.981445 3.90234375 50.47265625 C3.90556641 51.37177734 3.90878906 52.27089844 3.91210938 53.19726562 C3.92048828 54.14279297 3.92886719 55.08832031 3.9375 56.0625 C3.94201172 57.01189453 3.94652344 57.96128906 3.95117188 58.93945312 C3.9629989 61.29303065 3.97947975 63.64648477 4 66 C6.89281136 66.25035448 6.89281136 66.25035448 10 66 C11.69088222 64.02043058 13.35830472 62.02054804 15 60 C17.625 59.375 17.625 59.375 20 60 C22.64982313 62.28433029 22.97366362 63.77175137 23.375 67.25 C22.70371443 73.96285565 20.30643637 79.76244226 16 85 C7.70844137 91.21027671 0.10155816 91.60115543 -10 91 C-12.86210508 90.34799616 -14.42089536 89.53648787 -17 88 C-18.051875 87.484375 -19.10375 86.96875 -20.1875 86.4375 C-25.28350748 82.02096018 -26.89663506 75.50106632 -28 69 C-28.06491592 67.13509689 -28.08575848 65.26831243 -28.0703125 63.40234375 C-28.080625 62.35369141 -28.0909375 61.30503906 -28.1015625 60.22460938 C-28.11721505 58.02933878 -28.10931654 55.83377668 -28.078125 53.63867188 C-27.92566035 48.05535351 -27.92566035 48.05535351 -30.54589844 43.46923828 C-32.66135789 42.26794134 -32.66135789 42.26794134 -36 41 C-38 38 -38 38 -37.8125 35 C-36.96940291 31.88702614 -36.57424348 30.83874534 -34 29 C-32.34097618 28.31453507 -30.67484173 27.645854 -29 27 C-28.96132813 25.58847656 -28.96132813 25.58847656 -28.921875 24.1484375 C-28.34399765 11.46140299 -28.34399765 11.46140299 -24 7 C-17.51429165 1.84091382 -8.42212399 -2.27382388 0 0 Z " fill="#000102" transform="translate(423,24)"/>
<path d="M0 0 C3.29465756 2.43177105 5.04163208 5.22456198 6.625 8.9375 C7.12620544 12.53477478 7.12620544 12.53477478 7.12670898 16.39819336 C7.13211197 17.10812943 7.13751495 17.81806549 7.14308167 18.54951477 C7.15549933 20.87589348 7.13912438 23.20101735 7.12109375 25.52734375 C7.12124892 27.15727299 7.12274086 28.78720261 7.12550354 30.41712952 C7.12688447 33.82569787 7.1143826 37.2338439 7.09155273 40.64233398 C7.06319147 44.99441563 7.06590331 49.345795 7.07864285 53.69792843 C7.08562486 57.06187351 7.07778171 60.42565857 7.06538582 63.78958321 C7.06089418 65.39342191 7.06051435 66.99727793 7.06445122 68.60111809 C7.08810434 86.71684158 7.08810434 86.71684158 1.625 93.375 C-3.20294679 97.14683343 -9.55517525 96.47957941 -15.375 95.9375 C-19.25371611 94.6919786 -21.74625053 92.75487431 -24.25 89.5 C-26.32227473 84.77981867 -26.50948847 80.31005044 -26.55200195 75.19458008 C-26.55857315 74.5369165 -26.56514435 73.87925293 -26.57191467 73.20166016 C-26.59153645 71.03678243 -26.60328661 68.87197379 -26.61328125 66.70703125 C-26.61735678 65.96285131 -26.6214323 65.21867138 -26.62563133 64.45194054 C-26.64644693 60.51117613 -26.66076683 56.57044605 -26.67016602 52.62963867 C-26.68120806 48.58257694 -26.71559487 44.53606837 -26.75533772 40.48920155 C-26.7816238 37.35683753 -26.7898685 34.22460287 -26.79344749 31.09213829 C-26.79828425 29.60155193 -26.80981408 28.1109702 -26.82848549 26.62049294 C-26.92728373 18.2096341 -26.85175617 10.35755801 -22.375 2.9375 C-16.2458425 -2.11905494 -7.34922964 -2.31364637 0 0 Z " fill="#000102" transform="translate(772.375,19.0625)"/>
<path d="M0 0 C3.79479736 2.35277436 4.88689546 4.80384339 6.125 8.9375 C6.50595093 12.52804565 6.50595093 12.52804565 6.51318359 16.38232422 C6.51844055 17.09065399 6.52369751 17.79898376 6.52911377 18.52877808 C6.54222333 20.85014475 6.5336065 23.17081489 6.5234375 25.4921875 C6.5254613 27.11972178 6.52837528 28.74725518 6.53213501 30.37478638 C6.5365465 33.77907988 6.53016707 37.18313649 6.51611328 40.58740234 C6.49904928 44.93039325 6.50885216 49.27282671 6.52683067 53.61579704 C6.53772377 56.97547527 6.53419651 60.3350236 6.5264473 63.69470596 C6.5244591 65.29493401 6.52685553 66.8951742 6.53388596 68.49538803 C6.60173586 88.28246999 6.60173586 88.28246999 0.6875 94.5 C-5.09803293 96.83451329 -11.07075319 97.00535875 -17.1015625 95.3125 C-20.44230507 93.72031631 -21.85192091 91.98249173 -23.5222168 88.72631836 C-25.74587439 82.31653739 -25.39906993 75.5227529 -25.45703125 68.81640625 C-25.47900461 67.34722974 -25.50194558 65.87806742 -25.52580261 64.40892029 C-25.57247883 61.34028025 -25.60919633 58.27173545 -25.63842773 55.20288086 C-25.67624026 51.29131759 -25.73629312 47.38048609 -25.80354786 43.46933079 C-25.85362601 40.43833486 -25.89311756 37.40727133 -25.92938805 34.37608147 C-25.94762358 32.93490564 -25.96875102 31.49376311 -25.99295998 30.05267525 C-26.32319028 9.25706734 -26.32319028 9.25706734 -19.875 1.9375 C-13.58606511 -1.76187346 -6.89616769 -2.34236919 0 0 Z " fill="#000102" transform="translate(684.875,19.0625)"/>
<path d="M0 0 C2.69223407 3.92617469 3.74878979 7.43349056 3.7746582 12.17382812 C3.78895622 13.62057922 3.78895622 13.62057922 3.80354309 15.09655762 C3.80263168 16.1268811 3.80172028 17.15720459 3.80078125 18.21875 C3.80506638 19.2874231 3.8093515 20.35609619 3.81376648 21.45715332 C3.81950093 23.71312757 3.82001658 25.9691203 3.81567383 28.22509766 C3.81251134 31.67512515 3.83599361 35.12429705 3.86132812 38.57421875 C3.86360095 40.76822809 3.86430469 42.96223973 3.86328125 45.15625 C3.872491 46.18657349 3.88170074 47.21689697 3.89118958 48.27844238 C3.83339315 57.22796405 3.83339315 57.22796405 0.5 61.1875 C-5.12259817 65.64075366 -11.67939171 64.87596516 -18.5 64.1875 C-22.15740705 62.76173115 -23.73046711 61.87119305 -25.36807251 58.28820801 C-27.2588722 52.77220471 -27.94378719 47.90663271 -27.8984375 42.09375 C-27.90130768 41.26218384 -27.90417786 40.43061768 -27.90713501 39.57385254 C-27.90916123 37.82933871 -27.90373326 36.08480139 -27.89111328 34.34033203 C-27.87503834 31.69381147 -27.89101092 29.0488177 -27.91015625 26.40234375 C-27.90817356 24.69530918 -27.90432936 22.98827555 -27.8984375 21.28125 C-27.90451019 20.50285767 -27.91058289 19.72446533 -27.9168396 18.92248535 C-27.83003625 12.02813615 -26.49322861 5.78977068 -22.25 0.25 C-15.46651021 -4.83761734 -6.92386335 -5.01980093 0 0 Z " fill="#000102" transform="translate(486.5,50.8125)"/>
<path d="M0 0 C4.15354331 2.90748031 4.15354331 2.90748031 5.5 5.75 C5.96083355 8.83360227 6.02615828 11.67225691 5.5 14.75 C3.62379387 17.25160818 2.26108697 18.36945652 -0.5 19.75 C-16.8855713 20.97150159 -16.8855713 20.97150159 -22 17.6875 C-25.01882299 14.14038299 -25.74477624 12.40074855 -25.5 7.75 C-23.69308265 3.83501241 -22.11212917 2.12477296 -18.4375 -0.125 C-12.45097864 -2.29253359 -5.93341907 -2.11907824 0 0 Z " fill="#000102" transform="translate(484.5,18.25)"/>
<path d="M0 0 C6.27754104 0.48408899 10.62783742 0.85574598 15.390625 5.1171875 C18.22652449 9.37103673 18.14011934 13.12587411 17.390625 18.1171875 C14.86107865 22.03390444 12.40316335 23.32717786 8.015625 24.4296875 C4.07904067 25.1274767 0.37951007 25.36649282 -3.609375 25.1171875 C-6.02753666 22.69902584 -4.79484519 16.42940931 -4.796875 13.1796875 C-4.80912109 12.15166016 -4.82136719 11.12363281 -4.83398438 10.06445312 C-4.83591797 9.08283203 -4.83785156 8.10121094 -4.83984375 7.08984375 C-4.84395264 6.18500244 -4.84806152 5.28016113 -4.85229492 4.34790039 C-4.47837356 0.91421246 -3.39163779 0.15231906 0 0 Z " fill="#FCFDFF" transform="translate(63.609375,70.8828125)"/>
<path d="M0 0 C3.15763618 3.27904666 3.3846575 5.7572479 3.3984375 10.2265625 C3.40230469 11.4228125 3.40617187 12.6190625 3.41015625 13.8515625 C3.39855469 15.09679687 3.38695312 16.34203125 3.375 17.625 C3.38660156 18.87796875 3.39820313 20.1309375 3.41015625 21.421875 C3.40628906 22.61554688 3.40242188 23.80921875 3.3984375 25.0390625 C3.39336182 26.68189209 3.39336182 26.68189209 3.38818359 28.35791016 C3.26008301 29.2297998 3.13198242 30.10168945 3 31 C-0.49124017 33.32749345 -1.89222251 33.50299316 -6 33 C-10.12257395 30.13710142 -11.05401567 26.8087537 -12 22 C-12.82398225 14.22276405 -11.3650694 6.5476041 -7 0 C-3.83901159 -1.0536628 -2.99112741 -1.21514551 0 0 Z " fill="#FCFDFF" transform="translate(1056,65)"/>
<path d="M0 0 C2.4375 0.8125 2.4375 0.8125 4.4375 3.8125 C4.69628906 6.69165039 4.69628906 6.69165039 4.703125 10.16015625 C4.70570313 11.40474609 4.70828125 12.64933594 4.7109375 13.93164062 C4.70320313 15.23294922 4.69546875 16.53425781 4.6875 17.875 C4.69523437 19.18017578 4.70296875 20.48535156 4.7109375 21.83007812 C4.70835937 23.07337891 4.70578125 24.31667969 4.703125 25.59765625 C4.70086914 26.74113525 4.69861328 27.88461426 4.69628906 29.06274414 C4.4375 31.8125 4.4375 31.8125 2.4375 33.8125 C-1.33000245 34.23111138 -3.64517318 34.4075228 -6.875 32.3125 C-11.51498027 25.43845516 -11.03909739 17.68065467 -9.5625 9.8125 C-7.89148048 4.99692556 -5.90806731 -0.43229761 0 0 Z " fill="#FCFDFF" transform="translate(251.5625,64.1875)"/>
<path d="M0 0 C2.3706746 3.5560119 2.25731429 5.13086181 2.265625 9.34765625 C2.26820313 10.59224609 2.27078125 11.83683594 2.2734375 13.11914062 C2.26570312 14.42044922 2.25796875 15.72175781 2.25 17.0625 C2.25773438 18.36767578 2.26546875 19.67285156 2.2734375 21.01757812 C2.27085937 22.26087891 2.26828125 23.50417969 2.265625 24.78515625 C2.26336914 25.92863525 2.26111328 27.07211426 2.25878906 28.25024414 C2 31 2 31 0 33 C-3.9333779 33.50988232 -6.09287396 33.68647376 -9.3125 31.25 C-13.56933088 23.05165904 -13.40655794 15.34226161 -11.01953125 6.59375 C-9.9769912 3.9414642 -8.9219646 2.09842289 -7 0 C-3.86559131 -1.0448029 -2.97903963 -1.15317663 0 0 Z " fill="#FCFDFF" transform="translate(967,65)"/>
<path d="M0 0 C6.46708015 -0.35133031 11.2886165 -0.21265322 17 3 C19.12334287 6.1850143 19.31946711 7.24456307 19.375 10.9375 C19.40335938 11.79214844 19.43171875 12.64679687 19.4609375 13.52734375 C18.83630914 16.87810436 17.70559461 17.96406252 15 20 C12.125 20.8984375 12.125 20.8984375 9 21.375 C7.96875 21.54773438 6.9375 21.72046875 5.875 21.8984375 C2.86414203 22.00479933 1.50299984 21.60047586 -1 20 C-1.02689449 17.04160645 -1.04678741 14.08345573 -1.0625 11.125 C-1.07087891 10.28324219 -1.07925781 9.44148438 -1.08789062 8.57421875 C-1.09111328 7.76855469 -1.09433594 6.96289062 -1.09765625 6.1328125 C-1.10289307 5.38918457 -1.10812988 4.64555664 -1.11352539 3.87939453 C-1 2 -1 2 0 0 Z " fill="#FCFDFF" transform="translate(60,35)"/>
<path d="M0 0 C2.4375 0.875 2.4375 0.875 4.4375 3.875 C4.703125 6.28515625 4.703125 6.28515625 4.6875 8.9375 C4.69265625 9.81535156 4.6978125 10.69320312 4.703125 11.59765625 C4.4375 13.875 4.4375 13.875 2.4375 15.875 C-0.1640625 16.0703125 -0.1640625 16.0703125 -3.1875 16 C-4.69183594 15.97292969 -4.69183594 15.97292969 -6.2265625 15.9453125 C-6.99742187 15.92210938 -7.76828125 15.89890625 -8.5625 15.875 C-9.80175303 12.38761488 -9.3608396 10.62796632 -7.8125 7.3125 C-7.29429687 6.16587891 -7.29429687 6.16587891 -6.765625 4.99609375 C-3.82588564 -0.18662857 -3.82588564 -0.18662857 0 0 Z " fill="#FCFDFF" transform="translate(165.5625,59.125)"/>
<path d="M0 0 C2.33368594 3.50052891 2.24221979 4.99614337 2.1875 9.125 C2.17783203 10.73761719 2.17783203 10.73761719 2.16796875 12.3828125 C2 15 2 15 1 16 C-1.01964199 16.07244053 -3.04167124 16.08377188 -5.0625 16.0625 C-6.71958984 16.04896484 -6.71958984 16.04896484 -8.41015625 16.03515625 C-9.26480469 16.02355469 -10.11945313 16.01195313 -11 16 C-12 14 -12 14 -11.36328125 11.50390625 C-11.01652344 10.53324219 -10.66976563 9.56257813 -10.3125 8.5625 C-9.97863281 7.59441406 -9.64476562 6.62632813 -9.30078125 5.62890625 C-7.01261456 1.00447327 -5.1369654 0 0 0 Z " fill="#FCFDFF" transform="translate(1144,59)"/>
</svg>
