<svg xmlns="http://www.w3.org/2000/svg" version="1.1" xmlns:xlink="http://www.w3.org/1999/xlink" xmlns:svgjs="http://svgjs.dev/svgjs" width="1500" height="383" viewBox="0 0 1500 383"><g transform="matrix(1,0,0,1,0.25491573033696113,-0.33999140233871117)"><svg viewBox="0 0 356 91" data-background-color="#ffffff" preserveAspectRatio="xMidYMid meet" height="383" width="1500" xmlns="http://www.w3.org/2000/svg" xmlns:xlink="http://www.w3.org/1999/xlink"><g id="tight-bounds" transform="matrix(1,0,0,1,-0.06049999999996203,0.08078124703087042)"><svg viewBox="0 0 356.12052 90.83843750593824" height="90.83843750593824" width="356.12052"><g><svg viewBox="0 0 356.12052 90.83843750593824" height="90.83843750593824" width="356.12052"><g><svg viewBox="0 0 356.12052 90.83843750593824" height="90.83843750593824" width="356.12052"><g><path d="M0 90.838v-90.838h356.121v90.838z" fill="#ffffff" stroke="transparent" stroke-width="0" rx="0%" data-fill-palette-color="tertiary"></path><path d="M3.283 87.555v-84.272h349.554v84.272z" fill="#4c6baa" stroke="transparent" stroke-width="0" rx="0%" data-fill-palette-color="quaternary"></path><path d="M9.85 80.989v-71.139h336.421v71.139z" fill="#ffffff" stroke="transparent" stroke-width="0" data-fill-palette-color="tertiary"></path></g><g transform="matrix(1,0,0,1,19.69974,19.69974)" id="textblocktransform"><svg viewBox="0 0 316.72104 51.43895750593825" height="51.43895750593825" width="316.72104" id="textblock"><g><svg viewBox="0 0 316.72104 51.43895750593825" height="51.43895750593825" width="316.72104"><g transform="matrix(1,0,0,1,0,0)"><svg width="316.72104" viewBox="1.51 -38.33 328.87 53.42" height="51.43895750593825" data-palette-color="#4c6baa"><path d="M23.05-28.86L23.05-28.86Q23.05-25.49 21.39-22.73 19.73-19.97 16.94-18.12L16.94-18.12Q18.41-17.82 19.48-17.11 20.56-16.41 21.26-15.38 21.97-14.36 22.34-13.06 22.71-11.77 22.71-10.35L22.71-10.35Q22.71-7.57 21.41-5.49 20.12-3.42 18.07-2.08 16.02-0.73 13.5-0.07 10.99 0.59 8.5 0.59L8.5 0.59Q7.13 0.59 5.76 0.39 4.39 0.2 3.17-0.29L3.17-0.29Q2.73-0.44 2.44-1.49 2.15-2.54 1.98-4.05 1.81-5.57 1.71-7.32 1.61-9.08 1.56-10.69 1.51-12.3 1.51-13.53 1.51-14.75 1.51-15.23L1.51-15.23Q1.51-16.94 1.51-18.68 1.51-20.41 1.61-22.12L1.61-22.12Q1.61-22.56 1.64-23.49 1.66-24.41 1.68-25.56 1.71-26.71 1.78-27.98 1.86-29.25 1.98-30.35 2.1-31.45 2.32-32.23 2.54-33.01 2.83-33.2L2.83-33.2Q3.96-33.94 5.32-34.59 6.69-35.25 8.15-35.74 9.62-36.23 11.08-36.52 12.55-36.82 13.87-36.82L13.87-36.82Q15.67-36.82 17.36-36.3 19.04-35.79 20.29-34.77 21.53-33.74 22.29-32.25 23.05-30.76 23.05-28.86ZM14.94-26.27L14.94-26.27Q14.94-27.1 14.43-27.49 13.92-27.88 13.09-27.88L13.09-27.88Q12.4-27.88 11.65-27.59 10.89-27.29 10.35-26.81L10.35-26.81Q10.21-26.66 10.08-25.98 9.96-25.29 9.89-24.44 9.81-23.58 9.79-22.83 9.77-22.07 9.77-21.83L9.77-21.83Q9.77-21.73 9.77-21.51 9.77-21.29 9.79-21.04 9.81-20.8 9.86-20.61 9.91-20.41 10.01-20.41L10.01-20.41Q10.84-20.41 11.72-21.02 12.6-21.63 13.31-22.53 14.01-23.44 14.48-24.46 14.94-25.49 14.94-26.27ZM14.75-12.16L14.75-12.16Q14.75-12.99 14.16-13.33 13.57-13.67 12.84-13.67L12.84-13.67Q12.16-13.67 11.4-13.35 10.64-13.04 10.16-12.6L10.16-12.6Q10.01-12.5 9.94-12.11 9.86-11.72 9.84-11.25 9.81-10.79 9.79-10.38 9.77-9.96 9.77-9.81L9.77-9.81Q9.77-9.72 9.77-9.42 9.77-9.13 9.79-8.81 9.81-8.5 9.89-8.23 9.96-7.96 10.06-7.96L10.06-7.96Q10.74-7.96 11.57-8.35 12.4-8.74 13.11-9.33 13.82-9.91 14.28-10.67 14.75-11.43 14.75-12.16ZM45.7-8.69L45.7-8.69Q45.7-7.03 44.65-5.44 43.6-3.86 42.01-2.61 40.43-1.37 38.62-0.61 36.81 0.15 35.3 0.15L35.3 0.15Q32.71 0.15 30.69-1.15 28.66-2.44 27.29-4.44 25.93-6.45 25.22-8.86 24.51-11.28 24.51-13.57L24.51-13.57Q24.51-16.02 25.19-18.8 25.88-21.58 27.27-23.93 28.66-26.27 30.78-27.83 32.91-29.39 35.84-29.39L35.84-29.39Q37.5-29.39 39.01-28.83 40.52-28.27 41.65-27.25 42.77-26.22 43.45-24.8 44.14-23.39 44.14-21.63L44.14-21.63Q44.14-19.34 43.16-17.33 42.19-15.33 40.57-13.87 38.96-12.4 36.86-11.5 34.76-10.6 32.57-10.5L32.57-10.5Q32.76-9.08 33.71-8.45 34.67-7.81 35.98-7.81L35.98-7.81Q36.96-7.81 37.89-8.3 38.82-8.79 39.69-9.4 40.57-10.01 41.43-10.5 42.28-10.99 43.16-10.99L43.16-10.99Q44.14-10.99 44.92-10.35 45.7-9.72 45.7-8.69ZM37.79-20.65L37.79-20.65Q37.79-21.29 37.45-21.97 37.11-22.66 36.37-22.66L36.37-22.66Q35.3-22.66 34.57-22.09 33.84-21.53 33.35-20.68 32.86-19.82 32.59-18.85 32.32-17.87 32.27-17.04L32.27-17.04Q32.96-17.19 33.91-17.43 34.86-17.68 35.72-18.09 36.57-18.51 37.18-19.14 37.79-19.78 37.79-20.65ZM68.4-6.88L68.4-6.88Q68.4-6.01 68.33-4.59 68.26-3.17 67.91-1.83 67.57-0.49 66.84 0.49 66.11 1.46 64.79 1.46L64.79 1.46Q62.98 1.46 62.01 0.29 61.03-0.88 61.08-2.64L61.08-2.64Q59.52-1.27 57.54-0.49 55.56 0.29 53.51 0.29L53.51 0.29Q52.09 0.29 50.83-0.39 49.56-1.07 48.58-2.15 47.6-3.22 47.02-4.57 46.43-5.91 46.43-7.23L46.43-7.23Q46.43-9.57 47.87-11.33 49.31-13.09 51.41-14.33 53.51-15.58 55.88-16.31 58.25-17.04 60.1-17.29L60.1-17.29Q60.1-17.53 60.13-17.72 60.15-17.92 60.15-18.16L60.15-18.16Q60.15-19.68 59.32-20.61 58.49-21.53 56.98-21.53L56.98-21.53Q55.76-21.53 54.88-21.12 54-20.7 53.22-20.19 52.44-19.68 51.66-19.26 50.87-18.85 49.9-18.85L49.9-18.85Q48.82-18.85 48.07-19.53 47.31-20.21 47.31-21.29L47.31-21.29Q47.31-22.9 48.26-24.22 49.21-25.54 50.65-26.44 52.09-27.34 53.78-27.86 55.46-28.37 56.88-28.37L56.88-28.37Q58.2-28.37 59.52-28.05 60.83-27.73 62.01-27.08 63.18-26.42 64.13-25.46 65.08-24.51 65.67-23.24L65.67-23.24Q66.55-21.44 67.08-19.41 67.62-17.38 67.91-15.26 68.21-13.13 68.31-11.01 68.4-8.89 68.4-6.88ZM60.59-8.45L60.59-8.45 60.44-11.77Q60.35-11.77 60.25-11.79 60.15-11.82 60.05-11.82L60.05-11.82Q59.42-11.82 58.47-11.5 57.51-11.18 56.64-10.62 55.76-10.06 55.15-9.38 54.54-8.69 54.54-7.96L54.54-7.96Q54.54-7.28 55.02-7.03 55.51-6.79 56.15-6.79L56.15-6.79Q57.22-6.79 58.44-7.35 59.66-7.91 60.59-8.45ZM92.72-13.96L92.72-13.96Q92.72-11.28 92.18-8.64 91.64-6.01 90.37-3.93 89.1-1.86 86.98-0.59 84.86 0.68 81.68 0.68L81.68 0.68Q78.56 0.68 76.46-0.56 74.36-1.81 73.11-3.86 71.87-5.91 71.35-8.5 70.84-11.08 70.84-13.77L70.84-13.77Q70.84-16.7 71.53-19.58L71.53-19.58Q71.67-20.36 72.09-21.75 72.5-23.14 73.16-24.49 73.82-25.83 74.68-26.81 75.53-27.78 76.56-27.78L76.56-27.78Q77.53-27.78 78.12-27.25 78.7-26.71 79.05-25.9 79.39-25.1 79.48-24.19 79.58-23.29 79.58-22.56L79.58-22.56Q79.58-21.44 79.41-20.36 79.24-19.29 79.05-18.21L79.05-18.21Q78.85-16.75 78.68-15.28 78.51-13.82 78.51-12.35L78.51-12.35Q78.51-11.62 78.58-10.72 78.65-9.81 78.95-8.98 79.24-8.15 79.78-7.59 80.31-7.03 81.29-7.03L81.29-7.03Q82.56-7.03 83.32-7.71 84.07-8.4 84.44-9.42 84.81-10.45 84.9-11.62 85-12.79 85-13.77L85-13.77Q85-15.92 84.71-17.99 84.42-20.07 84.17-22.22L84.17-22.22Q84.12-22.46 84.12-22.9L84.12-22.9Q84.12-23.63 84.37-24.37 84.61-25.1 85.05-25.68 85.49-26.27 86.13-26.64 86.76-27 87.54-27L87.54-27Q88.62-27 89.45-26.25 90.28-25.49 90.84-24.29 91.4-23.1 91.76-21.61 92.13-20.12 92.35-18.68 92.57-17.24 92.64-15.97 92.72-14.7 92.72-13.96ZM107.07 1.76L107.07 1.76Q103.6 1.76 101.67 0.85 99.75-0.05 98.79-1.71 97.84-3.37 97.65-5.71 97.45-8.06 97.45-10.94L97.45-10.94Q97.45-13.23 97.6-15.55 97.74-17.87 98.04-20.51L98.04-20.51Q97.35-20.51 96.96-20.48 96.57-20.46 96.33-20.46L96.33-20.46Q94.77-20.46 93.62-21.14 92.47-21.83 92.47-23.24L92.47-23.24Q92.47-24.12 93.13-24.8 93.79-25.49 94.81-25.98 95.84-26.46 97.04-26.76 98.23-27.05 99.31-27.15L99.31-27.15Q99.31-28.52 99.5-30.18 99.7-31.84 100.21-33.28 100.72-34.72 101.6-35.69 102.48-36.67 103.85-36.67L103.85-36.67Q104.63-36.67 105.24-36.21 105.85-35.74 106.24-35.03 106.63-34.33 106.83-33.45 107.02-32.57 107.02-31.74L107.02-31.74Q107.02-30.76 106.87-29.74 106.73-28.71 106.34-27.2L106.34-27.2Q107.17-27.29 107.46-27.32 107.75-27.34 108-27.34L108-27.34Q108.83-27.34 109.73-27.2 110.63-27.05 111.39-26.71 112.15-26.37 112.64-25.81 113.12-25.24 113.12-24.46L113.12-24.46Q113.12-23.58 112.42-22.9 111.71-22.22 110.63-21.73 109.56-21.24 108.34-20.97 107.12-20.7 106.04-20.61L106.04-20.61Q105.75-18.6 105.63-16.92 105.51-15.23 105.36-13.53L105.36-13.53Q105.26-12.7 105.19-11.84 105.12-10.99 105.12-10.11L105.12-10.11Q105.12-9.47 105.17-8.62 105.21-7.76 105.51-6.98 105.8-6.2 106.44-5.64 107.07-5.08 108.19-5.08L108.19-5.08Q108.88-5.08 109.61-5.2 110.34-5.32 111.07-5.32L111.07-5.32Q112.34-5.32 112.91-4.44 113.47-3.56 113.47-2.2L113.47-2.2Q113.47-1.17 112.86-0.42 112.25 0.34 111.32 0.81 110.39 1.27 109.24 1.51 108.1 1.76 107.07 1.76ZM122.5-34.08L122.5-34.08Q122.5-33.4 122.13-32.86 121.76-32.32 121.18-31.91 120.59-31.49 119.91-31.27 119.23-31.05 118.64-31.05L118.64-31.05Q117.66-31.05 116.93-31.54 116.2-32.03 116.2-33.06L116.2-33.06Q116.2-33.79 116.56-34.35 116.93-34.91 117.47-35.28 118.01-35.64 118.69-35.84 119.37-36.04 120.01-36.04L120.01-36.04Q120.93-36.04 121.72-35.6 122.5-35.16 122.5-34.08ZM122.89-17.48L122.89-17.48Q122.89-16.8 122.89-16.04 122.89-15.28 122.84-14.6L122.84-14.6Q122.79-13.77 122.79-12.38 122.79-10.99 122.69-9.38 122.59-7.76 122.38-6.1 122.16-4.44 121.67-3.08 121.18-1.71 120.37-0.85 119.57 0 118.35 0.05L118.35 0.05Q117.42 0.1 116.78-0.68 116.15-1.46 115.73-2.71 115.32-3.96 115.12-5.49 114.93-7.03 114.83-8.47 114.73-9.91 114.73-11.13 114.73-12.35 114.73-12.94L114.73-12.94Q114.73-13.72 114.73-15.16 114.73-16.6 114.83-18.26 114.93-19.92 115.2-21.63 115.47-23.34 115.98-24.76 116.49-26.17 117.32-27.05 118.15-27.93 119.42-27.93L119.42-27.93Q120.74-27.93 121.42-26.61 122.11-25.29 122.45-23.54 122.79-21.78 122.84-20.04 122.89-18.31 122.89-17.48ZM146.81-29.2L146.81-29.2Q146.81-28.27 146.64-27.42 146.47-26.56 146.03-25.93 145.59-25.29 144.86-24.93 144.13-24.56 143.05-24.56L143.05-24.56Q141.83-24.56 141.24-25.05 140.66-25.54 140.44-26.25 140.22-26.95 140.22-27.78 140.22-28.61 140.15-29.32 140.07-30.03 139.78-30.52 139.49-31.01 138.71-31.01L138.71-31.01Q137.97-31.01 137.51-29.88 137.05-28.76 136.75-27.29 136.46-25.83 136.36-24.44 136.26-23.05 136.26-22.56L136.26-22.56Q136.9-22.66 137.49-22.73 138.07-22.8 138.75-22.8L138.75-22.8Q139.44-22.8 140.17-22.66 140.9-22.51 141.54-22.19 142.17-21.88 142.56-21.31 142.95-20.75 142.95-19.92L142.95-19.92Q142.95-19.04 142.2-18.36 141.44-17.68 140.39-17.21 139.34-16.75 138.27-16.46 137.19-16.16 136.56-16.06L136.56-16.06Q136.7-12.7 136.7-9.28L136.7-9.28Q136.7-6.05 136.56-2.93L136.56-2.93Q136.46-1.42 135.51-0.44 134.56 0.54 133.04 0.54L133.04 0.54Q132.21 0.54 131.63 0.22 131.04-0.1 130.65-0.63 130.26-1.17 130.04-1.86 129.82-2.54 129.77-3.27L129.77-3.27Q129.53-6.2 129.38-9.16 129.23-12.11 129.28-15.09L129.28-15.09Q128.94-15.04 128.62-15.04 128.31-15.04 127.96-15.04L127.96-15.04Q127.38-15.04 126.55-15.19 125.72-15.33 124.96-15.7 124.2-16.06 123.67-16.6 123.13-17.14 123.13-17.97L123.13-17.97Q123.13-19.04 123.84-19.78 124.55-20.51 125.55-20.97 126.55-21.44 127.65-21.63 128.74-21.83 129.57-21.92L129.57-21.92 129.57-22.71Q129.57-25.1 130.01-27.83 130.45-30.57 131.58-32.91 132.7-35.25 134.65-36.79 136.61-38.33 139.63-38.33L139.63-38.33Q141.54-38.33 142.9-37.52 144.27-36.72 145.15-35.42 146.03-34.13 146.42-32.5 146.81-30.86 146.81-29.2ZM166.39-13.96L166.39-13.96Q166.39-11.28 165.85-8.64 165.31-6.01 164.05-3.93 162.78-1.86 160.65-0.59 158.53 0.68 155.35 0.68L155.35 0.68Q152.23 0.68 150.13-0.56 148.03-1.81 146.78-3.86 145.54-5.91 145.03-8.5 144.51-11.08 144.51-13.77L144.51-13.77Q144.51-16.7 145.2-19.58L145.2-19.58Q145.34-20.36 145.76-21.75 146.17-23.14 146.83-24.49 147.49-25.83 148.35-26.81 149.2-27.78 150.23-27.78L150.23-27.78Q151.2-27.78 151.79-27.25 152.38-26.71 152.72-25.9 153.06-25.1 153.16-24.19 153.25-23.29 153.25-22.56L153.25-22.56Q153.25-21.44 153.08-20.36 152.91-19.29 152.72-18.21L152.72-18.21Q152.52-16.75 152.35-15.28 152.18-13.82 152.18-12.35L152.18-12.35Q152.18-11.62 152.25-10.72 152.33-9.81 152.62-8.98 152.91-8.15 153.45-7.59 153.99-7.03 154.96-7.03L154.96-7.03Q156.23-7.03 156.99-7.71 157.75-8.4 158.11-9.42 158.48-10.45 158.58-11.62 158.67-12.79 158.67-13.77L158.67-13.77Q158.67-15.92 158.38-17.99 158.09-20.07 157.84-22.22L157.84-22.22Q157.8-22.46 157.8-22.9L157.8-22.9Q157.8-23.63 158.04-24.37 158.28-25.1 158.72-25.68 159.16-26.27 159.8-26.64 160.43-27 161.21-27L161.21-27Q162.29-27 163.12-26.25 163.95-25.49 164.51-24.29 165.07-23.1 165.44-21.61 165.8-20.12 166.02-18.68 166.24-17.24 166.32-15.97 166.39-14.7 166.39-13.96ZM178.5-29.59L178.5-29.59Q178.5-26.95 178.28-24.29 178.06-21.63 178.06-18.95L178.06-18.95Q178.06-15.48 178.28-12.01 178.5-8.54 178.5-5.03L178.5-5.03Q178.5-4.15 178.4-3.05 178.3-1.95 177.93-1.03 177.57-0.1 176.84 0.54 176.1 1.17 174.88 1.17L174.88 1.17Q173.71 1.17 172.86 0.02 172-1.12 171.44-2.91 170.88-4.69 170.51-6.88 170.15-9.08 169.98-11.16 169.8-13.23 169.73-14.97 169.66-16.7 169.66-17.53L169.66-17.53Q169.66-18.46 169.73-20.21 169.8-21.97 170.05-24.02 170.29-26.07 170.71-28.2 171.12-30.32 171.81-32.06 172.49-33.79 173.44-34.89 174.39-35.99 175.71-35.99L175.71-35.99Q176.79-35.99 177.35-35.28 177.91-34.57 178.15-33.57 178.4-32.57 178.45-31.47 178.5-30.37 178.5-29.59ZM210.86-33.15L210.86-33.15Q210.86-32.23 210.45-31.49 210.03-30.76 209.35-30.25 208.67-29.74 207.84-29.39 207.01-29.05 206.23-28.91L206.23-28.91Q206.13-23.39 205.81-18.26 205.49-13.13 204.81-7.67L204.81-7.67 205.1-7.67Q205.88-7.67 206.64-7.5 207.4-7.32 208.01-6.91 208.62-6.49 208.98-5.88 209.35-5.27 209.35-4.39L209.35-4.39Q209.35-3.27 208.64-2.44 207.93-1.61 206.79-1.03 205.64-0.44 204.22-0.05 202.81 0.34 201.39 0.56 199.98 0.78 198.71 0.88 197.44 0.98 196.65 0.98L196.65 0.98Q196.07 0.98 195.21 0.93 194.36 0.88 193.6 0.63 192.85 0.39 192.31-0.1 191.77-0.59 191.77-1.42L191.77-1.42Q191.77-2.44 192.19-3.25 192.6-4.05 193.29-4.69 193.97-5.32 194.82-5.71 195.68-6.1 196.56-6.3L196.56-6.3Q196.9-8.98 197.19-11.65 197.48-14.31 197.58-17.04L197.58-17.04Q197.68-19.82 197.78-22.53 197.88-25.24 197.97-27.98L197.97-27.98Q197.63-27.93 197.34-27.91 197.05-27.88 196.8-27.88L196.8-27.88Q196.12-27.88 195.34-28.03 194.56-28.17 193.87-28.54 193.19-28.91 192.72-29.44 192.26-29.98 192.26-30.81L192.26-30.81Q192.26-32.47 193.65-33.54 195.04-34.62 196.97-35.21 198.9-35.79 200.9-36.01 202.9-36.23 204.13-36.23L204.13-36.23Q204.81-36.23 205.93-36.13 207.06-36.04 208.15-35.69 209.25-35.35 210.06-34.77 210.86-34.18 210.86-33.15ZM241.18-16.11L241.18-16.11Q241.18-15.19 241.18-13.6 241.18-12.01 241.11-10.16 241.04-8.3 240.79-6.42 240.55-4.54 240.04-3.03 239.52-1.51 238.74-0.54 237.96 0.44 236.74 0.44L236.74 0.44Q235.67 0.44 235.1-0.46 234.54-1.37 234.3-2.59 234.05-3.81 234.03-5.08 234.01-6.35 234.01-7.08L234.01-7.08Q234.01-9.28 234.15-11.38 234.3-13.48 234.3-15.67L234.3-15.67Q234.3-15.92 234.3-16.55 234.3-17.19 234.2-17.82 234.1-18.46 233.88-18.95 233.66-19.43 233.22-19.43L233.22-19.43Q232.35-19.43 231.81-18.53 231.27-17.63 230.93-16.41 230.59-15.19 230.44-13.99 230.29-12.79 230.25-12.21L230.25-12.21Q230.15-11.57 230.08-10.3 230-9.03 229.88-7.52 229.76-6.01 229.49-4.42 229.22-2.83 228.81-1.54 228.39-0.24 227.76 0.59 227.12 1.42 226.19 1.42L226.19 1.42Q225.02 1.42 224.39 0.39 223.75-0.63 223.46-2 223.17-3.37 223.09-4.79 223.02-6.2 223.02-6.98L223.02-6.98Q223.02-7.81 223.04-8.59 223.07-9.38 223.07-10.21L223.07-10.21Q223.07-10.55 223.07-11.33 223.07-12.11 223.04-13.06 223.02-14.01 222.95-15.04 222.87-16.06 222.73-16.92 222.58-17.77 222.29-18.31 221.99-18.85 221.6-18.85L221.6-18.85Q220.97-18.85 220.43-18.04 219.89-17.24 219.5-16.14 219.11-15.04 218.89-13.96 218.67-12.89 218.67-12.4L218.67-12.4 218.67-12.11Q218.67-9.77 218.97-7.52 219.26-5.27 219.26-2.93L219.26-2.93Q219.26-1.56 218.38-0.42 217.5 0.73 215.94 0.73L215.94 0.73Q214.82 0.73 214.08-0.12 213.35-0.98 212.86-2.34 212.37-3.71 212.11-5.35 211.84-6.98 211.74-8.57 211.64-10.16 211.62-11.45 211.59-12.74 211.59-13.38L211.59-13.38Q211.59-14.11 211.57-15.53 211.54-16.94 211.62-18.6 211.69-20.26 211.89-22 212.08-23.73 212.52-25.15 212.96-26.56 213.67-27.47 214.38-28.37 215.5-28.37L215.5-28.37Q216.77-28.37 217.58-27.69 218.38-27 218.38-25.63L218.38-25.63Q218.38-25.34 218.36-25.05 218.33-24.76 218.28-24.51L218.28-24.51Q218.82-25.29 219.6-26.1 220.38-26.9 221.29-27.56 222.19-28.22 223.21-28.64 224.24-29.05 225.27-29.05L225.27-29.05Q226.24-29.05 227.02-28.52 227.8-27.98 228.39-27.17 228.98-26.37 229.37-25.44 229.76-24.51 229.9-23.68L229.9-23.68Q230.39-24.56 231.1-25.46 231.81-26.37 232.64-27.05 233.47-27.73 234.47-28.17 235.47-28.61 236.54-28.61L236.54-28.61Q237.57-28.61 238.3-27.88 239.04-27.15 239.57-26 240.11-24.85 240.4-23.41 240.7-21.97 240.89-20.58 241.09-19.19 241.13-17.99 241.18-16.8 241.18-16.11ZM265.16-6.88L265.16-6.88Q265.16-6.01 265.08-4.59 265.01-3.17 264.67-1.83 264.33-0.49 263.59 0.49 262.86 1.46 261.54 1.46L261.54 1.46Q259.74 1.46 258.76 0.29 257.78-0.88 257.83-2.64L257.83-2.64Q256.27-1.27 254.29-0.49 252.31 0.29 250.26 0.29L250.26 0.29Q248.85 0.29 247.58-0.39 246.31-1.07 245.33-2.15 244.35-3.22 243.77-4.57 243.18-5.91 243.18-7.23L243.18-7.23Q243.18-9.57 244.62-11.33 246.06-13.09 248.16-14.33 250.26-15.58 252.63-16.31 255-17.04 256.85-17.29L256.85-17.29Q256.85-17.53 256.88-17.72 256.9-17.92 256.9-18.16L256.9-18.16Q256.9-19.68 256.07-20.61 255.24-21.53 253.73-21.53L253.73-21.53Q252.51-21.53 251.63-21.12 250.75-20.7 249.97-20.19 249.19-19.68 248.41-19.26 247.63-18.85 246.65-18.85L246.65-18.85Q245.58-18.85 244.82-19.53 244.06-20.21 244.06-21.29L244.06-21.29Q244.06-22.9 245.01-24.22 245.97-25.54 247.41-26.44 248.85-27.34 250.53-27.86 252.22-28.37 253.63-28.37L253.63-28.37Q254.95-28.37 256.27-28.05 257.59-27.73 258.76-27.08 259.93-26.42 260.88-25.46 261.84-24.51 262.42-23.24L262.42-23.24Q263.3-21.44 263.84-19.41 264.37-17.38 264.67-15.26 264.96-13.13 265.06-11.01 265.16-8.89 265.16-6.88ZM257.34-8.45L257.34-8.45 257.2-11.77Q257.1-11.77 257-11.79 256.9-11.82 256.81-11.82L256.81-11.82Q256.17-11.82 255.22-11.5 254.27-11.18 253.39-10.62 252.51-10.06 251.9-9.38 251.29-8.69 251.29-7.96L251.29-7.96Q251.29-7.28 251.78-7.03 252.26-6.79 252.9-6.79L252.9-6.79Q253.97-6.79 255.19-7.35 256.42-7.91 257.34-8.45ZM290.2-16.65L290.2-16.65Q290.2-14.16 290.13-11.67 290.06-9.18 289.86-6.69L289.86-6.69Q289.71-4.54 289.47-2.1 289.23 0.34 288.69 2.76 288.15 5.18 287.27 7.4 286.39 9.62 284.95 11.33 283.51 13.04 281.46 14.06 279.41 15.09 276.58 15.09L276.58 15.09Q275.26 15.09 273.62 14.67 271.99 14.26 270.55 13.48 269.11 12.7 268.11 11.55 267.11 10.4 267.11 8.89L267.11 8.89Q267.11 7.76 267.91 6.81 268.72 5.86 269.99 5.86L269.99 5.86Q270.77 5.86 271.48 6.13 272.18 6.4 272.89 6.74 273.6 7.08 274.26 7.35 274.92 7.62 275.6 7.62L275.6 7.62Q277.41 7.62 278.63 6.71 279.85 5.81 280.58 4.42 281.32 3.03 281.68 1.39 282.05-0.24 282.19-1.71L282.19-1.71Q281.22-0.59 279.92-0.17 278.63 0.24 277.21 0.24L277.21 0.24Q274.63 0.24 272.82-0.66 271.01-1.56 269.89-3.15 268.77-4.74 268.23-6.84 267.69-8.94 267.69-11.38L267.69-11.38Q267.69-12.89 268.01-14.79 268.33-16.7 268.96-18.65 269.6-20.61 270.55-22.46 271.5-24.32 272.77-25.73 274.04-27.15 275.63-28.03 277.21-28.91 279.12-28.91L279.12-28.91Q280.97-28.91 282.41-27.83 283.85-26.76 284.1-24.8L284.1-24.8Q284.64-25.83 285.51-26.83 286.39-27.83 287.66-27.83L287.66-27.83Q288.35-27.83 288.81-27.15 289.27-26.46 289.54-25.37 289.81-24.27 289.96-22.97 290.1-21.68 290.15-20.43 290.2-19.19 290.2-18.16 290.2-17.14 290.2-16.65ZM282.78-13.48L282.78-13.48Q282.78-14.21 282.56-15.38 282.34-16.55 281.93-17.63 281.51-18.7 280.88-19.48 280.24-20.26 279.36-20.26L279.36-20.26Q278.24-20.26 277.38-19.48 276.53-18.7 275.94-17.6 275.36-16.5 275.04-15.26 274.72-14.01 274.72-13.13L274.72-13.13Q274.72-12.5 274.82-11.43 274.92-10.35 275.24-9.33 275.55-8.3 276.09-7.57 276.63-6.84 277.51-6.84L277.51-6.84Q278.82-6.84 279.8-7.47 280.78-8.11 281.44-9.08 282.1-10.06 282.44-11.23 282.78-12.4 282.78-13.48ZM314.13-8.69L314.13-8.69Q314.13-7.03 313.08-5.44 312.03-3.86 310.44-2.61 308.85-1.37 307.05-0.61 305.24 0.15 303.72 0.15L303.72 0.15Q301.14 0.15 299.11-1.15 297.08-2.44 295.72-4.44 294.35-6.45 293.64-8.86 292.93-11.28 292.93-13.57L292.93-13.57Q292.93-16.02 293.62-18.8 294.3-21.58 295.69-23.93 297.08-26.27 299.21-27.83 301.33-29.39 304.26-29.39L304.26-29.39Q305.92-29.39 307.44-28.83 308.95-28.27 310.07-27.25 311.2-26.22 311.88-24.8 312.56-23.39 312.56-21.63L312.56-21.63Q312.56-19.34 311.59-17.33 310.61-15.33 309-13.87 307.39-12.4 305.29-11.5 303.19-10.6 300.99-10.5L300.99-10.5Q301.19-9.08 302.14-8.45 303.09-7.81 304.41-7.81L304.41-7.81Q305.38-7.81 306.31-8.3 307.24-8.79 308.12-9.4 309-10.01 309.85-10.5 310.71-10.99 311.59-10.99L311.59-10.99Q312.56-10.99 313.34-10.35 314.13-9.72 314.13-8.69ZM306.22-20.65L306.22-20.65Q306.22-21.29 305.87-21.97 305.53-22.66 304.8-22.66L304.8-22.66Q303.72-22.66 302.99-22.09 302.26-21.53 301.77-20.68 301.28-19.82 301.01-18.85 300.75-17.87 300.7-17.04L300.7-17.04Q301.38-17.19 302.33-17.43 303.29-17.68 304.14-18.09 304.99-18.51 305.6-19.14 306.22-19.78 306.22-20.65ZM330.38-26.86L330.38-26.86Q330.38-25.44 329.43-24.76 328.48-24.07 327.31-23.46 326.13-22.85 325.18-22.02 324.23-21.19 324.23-19.53L324.23-19.53Q324.23-18.65 324.65-18.02 325.06-17.38 325.67-16.87 326.28-16.36 327.01-15.82 327.75-15.28 328.36-14.6 328.97-13.92 329.38-12.94 329.8-11.96 329.8-10.55L329.8-10.55Q329.8-8.5 328.75-6.52 327.7-4.54 326.06-3 324.43-1.46 322.37-0.54 320.32 0.39 318.32 0.39L318.32 0.39Q317.49 0.39 316.66 0.27 315.83 0.15 315.17-0.2 314.51-0.54 314.07-1.15 313.63-1.76 313.63-2.73L313.63-2.73Q313.63-4.1 314.17-4.86 314.71-5.62 315.54-6.05 316.37-6.49 317.32-6.74 318.27-6.98 319.1-7.35 319.93-7.71 320.47-8.3 321.01-8.89 321.01-9.96L321.01-9.96Q321.01-10.99 320.2-12.08 319.4-13.18 318.42-14.43 317.44-15.67 316.64-17.09 315.83-18.51 315.83-20.21L315.83-20.21Q315.83-22.31 316.69-24.1 317.54-25.88 318.98-27.2 320.42-28.52 322.28-29.27 324.13-30.03 326.18-30.03L326.18-30.03Q326.96-30.03 327.72-29.88 328.48-29.74 329.06-29.37 329.65-29 330.02-28.39 330.38-27.78 330.38-26.86Z" opacity="1" transform="matrix(1,0,0,1,0,0)" fill="#4c6baa" class="wordmark-text-0" data-fill-palette-color="quaternary" id="text-0"></path></svg></g></svg></g></svg></g></svg></g><g></g></svg></g><defs></defs></svg><rect width="356.12052" height="90.83843750593824" fill="none" stroke="none" visibility="hidden"></rect></g></svg></g></svg>