<svg xmlns="http://www.w3.org/2000/svg" version="1.1" xmlns:xlink="http://www.w3.org/1999/xlink" xmlns:svgjs="http://svgjs.dev/svgjs" width="1500" height="1500" viewBox="0 0 1500 1500"><rect width="1500" height="1500" fill="#ffffff"></rect><g transform="matrix(0.6666666666666666,0,0,0.6666666666666666,249.99999613762316,435.25506072874487)"><svg viewBox="0 0 392 247" data-background-color="#ffffff" preserveAspectRatio="xMidYMid meet" height="945" width="1500" xmlns="http://www.w3.org/2000/svg" xmlns:xlink="http://www.w3.org/1999/xlink"><g id="tight-bounds" transform="matrix(1,0,0,1,0.0000015140517177769652,-0.09999999999999432)"><svg viewBox="0 0 391.99999697189656 247.2" height="247.2" width="391.99999697189656"><g><svg viewBox="0 0 395.52 249.41975702874697" height="247.2" width="391.99999697189656"><g transform="matrix(1,0,0,1,0,182.23822292232074)"><svg viewBox="0 0 395.52 67.18153410642621" height="67.18153410642621" width="395.52"><g id="textblocktransform"><svg viewBox="0 0 395.52 67.18153410642621" height="67.18153410642621" width="395.52" id="textblock"><g><svg viewBox="0 0 395.52 41.46914332209694" height="41.46914332209694" width="395.52"><g transform="matrix(1,0,0,1,0,0)"><svg width="395.52" viewBox="3.65 -34.6 430.11 45.1" height="41.46914332209694" data-palette-color="#ff4f14"><path d="M22.25-24.6L22.25-24.6Q22.25-26.7 20.63-27.48 19-28.25 15.2-28.25L15.2-28.25 15.2-20.6Q17.55-20.6 19.03-20.95 20.5-21.3 21.38-22.18 22.25-23.05 22.25-24.6ZM22.9-11.25L22.9-11.25Q22.9-12.9 22.05-13.8 21.2-14.7 19.6-15.08 18-15.45 15.2-15.45L15.2-15.45 15.2-6.8Q19.1-6.8 21-7.78 22.9-8.75 22.9-11.25ZM29.05-17.8L29.05-17.8Q33.7-15.05 33.7-10.45L33.7-10.45Q33.7-8.45 32.93-6.63 32.15-4.8 30.63-3.3 29.1-1.8 26.6-0.93 24.1-0.05 20.95-0.05L20.95-0.05 9.35-0.05Q6.3-0.05 4.98-1.6 3.65-3.15 3.65-7.15L3.65-7.15 3.65-28.3Q3.65-30 4.25-31.3 4.85-32.6 6.18-33.4 7.5-34.2 9.35-34.2L9.35-34.2 20.8-34.2Q25.8-34.15 29.13-31.48 32.45-28.8 32.45-24.6L32.45-24.6Q32.45-23.25 32.23-22.23 32-21.2 31.55-20.4 31.1-19.6 30.5-19 29.9-18.4 29.05-17.8ZM52.2 0.3L52.2 0.3Q46.1 0.3 42.12-2.85 38.15-6 38.15-11.45L38.15-11.45Q38.15-17.35 42.07-20.78 46-24.2 52.2-24.2L52.2-24.2Q58.05-24.2 60.77-22.13 63.5-20.05 63.5-16.45L63.5-16.45Q63.5-15.75 63.32-15.1 63.15-14.45 62.77-13.83 62.4-13.2 61.77-12.68 61.15-12.15 60.35-11.73 59.55-11.3 58.45-11.08 57.35-10.85 56.1-10.85L56.1-10.85 49.05-10.8Q49.55-9.2 50.85-8.28 52.15-7.35 54.15-7.35L54.15-7.35Q56.3-7.35 58.55-7.9L58.55-7.9Q59.5-8.15 60.62-8.7 61.75-9.25 62.25-9.25L62.25-9.25Q63.1-9.25 63.57-8.75 64.05-8.25 64.05-7.5L64.05-7.5Q64.05-6.6 63.25-5.33 62.45-4.05 61.02-2.78 59.6-1.5 57.25-0.6 54.9 0.3 52.2 0.3ZM48.8-14L48.8-14Q52.25-14.05 52.55-14.05L52.55-14.05Q53.3-14.05 53.65-14.95L53.65-14.95Q53.9-15.6 53.9-16.75L53.9-16.75Q53.9-19.9 52-19.9L52-19.9Q51.3-19.9 50.62-19.15 49.95-18.4 49.45-17.03 48.95-15.65 48.8-14ZM77.15 0.3L77.15 0.3Q73.2 0.3 70.6-2.93 68-6.15 68-11.75L68-11.75Q68-17.45 70.57-20.83 73.15-24.2 77.15-24.2L77.15-24.2Q81.2-24.2 84.65-21.35L84.65-21.35Q86-23.85 89-23.85L89-23.85Q91.7-23.85 93.2-22.68 94.7-21.5 94.7-18.35L94.7-18.35 94.7-5.35Q94.7-2.35 93.45-1.18 92.2 0 89.05 0L89.05 0Q85.75 0 84.7-1.85L84.7-1.85Q81.5 0.3 77.15 0.3ZM83.95-7.2L83.95-16.55Q83.1-18 81.75-18L81.75-18Q80.45-18 79.65-16.1 78.85-14.2 78.85-11.75L78.85-11.75Q78.85-9.45 79.6-7.65 80.35-5.85 81.7-5.85L81.7-5.85Q83.1-5.85 83.95-7.2L83.95-7.2ZM110.29-19.7L110.34-10.55Q110.34-7.7 112.54-7.7L112.54-7.7Q113.29-7.7 113.87-8.18 114.44-8.65 114.74-9.5 115.04-10.35 115.04-11.45L115.04-11.45 115.04-18.15Q115.04-19.85 115.64-21.13 116.24-22.4 117.39-23.1 118.54-23.8 120.09-23.8L120.09-23.8Q122.79-23.8 124.29-22.63 125.79-21.45 125.79-18.3L125.79-18.3 125.79-5.3Q125.79-2.25 124.54-1.1 123.29 0.05 120.14 0.05L120.14 0.05Q118.79 0.05 117.84-0.23 116.89-0.5 116.32-1.05 115.74-1.6 115.44-2.5L115.44-2.5Q113.39-1.15 111.12-0.6 108.84-0.05 106.04-0.05L106.04-0.05Q102.49-0.05 100.94-2.83 99.39-5.6 99.39-11.95L99.39-11.95Q99.39-15.1 99.54-17.07 99.69-19.05 100.02-20.48 100.34-21.9 101.02-22.6 101.69-23.3 102.62-23.6 103.54-23.9 105.04-23.9L105.04-23.9Q107.84-23.9 109.07-22.85 110.29-21.8 110.29-19.7L110.29-19.7ZM132.64-10.7L132.64-10.7 132.64-16.6Q131.39-16.65 130.64-17.03 129.89-17.4 129.57-18 129.24-18.6 129.24-19.5L129.24-19.5Q129.24-22.35 132.69-22.6L132.69-22.6 132.69-27.25Q132.69-29.15 135.44-30.68 138.19-32.2 140.89-32.2L140.89-32.2Q142.54-32.2 143.04-31.25 143.54-30.3 143.54-28.4L143.54-28.4 143.59-22.65 144.94-22.65Q147.69-22.65 148.72-21.93 149.74-21.2 149.74-19.3L149.74-19.3Q149.74-18.5 149.44-17.95 149.14-17.4 148.47-17.1 147.79-16.8 146.84-16.68 145.89-16.55 144.49-16.55L144.49-16.55 143.59-16.55 143.59-11.05Q143.59-10.25 143.67-9.73 143.74-9.2 143.89-8.9 144.04-8.6 144.32-8.5 144.59-8.4 144.99-8.4L144.99-8.4Q145.59-8.4 145.99-8.83 146.39-9.25 146.62-9.78 146.84-10.3 147.22-10.73 147.59-11.15 148.09-11.15L148.09-11.15Q149.24-11.15 149.87-10.6 150.49-10.05 150.49-9.25L150.49-9.25Q150.49-7.9 149.97-6.35 149.44-4.8 148.44-3.35 147.44-1.9 145.67-0.95 143.89 0 141.69 0L141.69 0Q136.74 0 134.69-2.5 132.64-5 132.64-10.7ZM155.04-30.8L155.04-30.8Q155.04-32.45 156.46-33.52 157.89-34.6 160.49-34.6L160.49-34.6Q165.94-34.6 165.94-30.8L165.94-30.8Q165.94-28.7 164.56-27.85 163.19-27 160.49-27L160.49-27Q158.14-27 156.59-27.9 155.04-28.8 155.04-30.8ZM165.89-18.35L165.89-5.35Q165.89-2.35 164.64-1.18 163.39 0 160.24 0L160.24 0Q157.29 0 156.21-1.38 155.14-2.75 155.14-5.9L155.14-5.9 155.14-18.2Q155.14-20.75 156.51-22.3 157.89-23.85 160.19-23.85L160.19-23.85Q162.89-23.85 164.39-22.68 165.89-21.5 165.89-18.35L165.89-18.35ZM185.09-26.3L185.09-26.3Q184.04-25.45 184.04-22.35L184.04-22.35Q187.39-22.35 188.69-21.73 189.99-21.1 189.99-19L189.99-19Q189.99-17.3 188.59-16.78 187.19-16.25 184.04-16.25L184.04-16.25 184.04-7.5Q184.04-3.25 182.71-1.63 181.39 0 178.54 0L178.54 0Q175.74 0 174.44-1.58 173.14-3.15 173.14-7.15L173.14-7.15 173.19-16.25Q169.49-16.3 169.49-19.15L169.49-19.15Q169.49-22.1 173.24-22.3L173.24-22.3Q173.29-28.75 175.11-31.48 176.94-34.2 182.14-34.2L182.14-34.2Q186.29-34.2 188.61-32.5 190.94-30.8 190.94-29.05L190.94-29.05Q190.94-28.3 190.31-27.73 189.69-27.15 188.54-27.15L188.54-27.15Q186.09-27.15 185.09-26.3ZM204.83-19.7L204.88-10.55Q204.88-7.7 207.08-7.7L207.08-7.7Q207.83-7.7 208.41-8.18 208.98-8.65 209.28-9.5 209.58-10.35 209.58-11.45L209.58-11.45 209.58-18.15Q209.58-19.85 210.18-21.13 210.78-22.4 211.93-23.1 213.08-23.8 214.63-23.8L214.63-23.8Q217.33-23.8 218.83-22.63 220.33-21.45 220.33-18.3L220.33-18.3 220.33-5.3Q220.33-2.25 219.08-1.1 217.83 0.05 214.68 0.05L214.68 0.05Q213.33 0.05 212.38-0.23 211.43-0.5 210.86-1.05 210.28-1.6 209.98-2.5L209.98-2.5Q207.93-1.15 205.66-0.6 203.38-0.05 200.58-0.05L200.58-0.05Q197.03-0.05 195.48-2.83 193.93-5.6 193.93-11.95L193.93-11.95Q193.93-15.1 194.08-17.07 194.23-19.05 194.56-20.48 194.88-21.9 195.56-22.6 196.23-23.3 197.16-23.6 198.08-23.9 199.58-23.9L199.58-23.9Q202.38-23.9 203.61-22.85 204.83-21.8 204.83-19.7L204.83-19.7ZM236.18-28.7L236.18-7.55Q236.18-3.5 234.83-1.75 233.48 0 230.68 0L230.68 0Q227.88 0 226.58-1.58 225.28-3.15 225.28-7.15L225.28-7.15 225.18-28.25Q225.18-29.55 225.46-30.55 225.73-31.55 226.21-32.25 226.68-32.95 227.38-33.4 228.08-33.85 228.91-34.05 229.73-34.25 230.68-34.25L230.68-34.25Q233.43-34.25 234.81-33.15 236.18-32.05 236.18-28.7L236.18-28.7ZM266.98-28.7L266.98-7.5Q266.98-3.6 265.53-1.8 264.08 0 261.13 0L261.13 0Q258.23 0 256.85-1.55 255.48-3.1 255.48-7.1L255.48-7.1 255.48-28.25Q255.48-34.25 261.13-34.25L261.13-34.25Q264.03-34.25 265.5-33.15 266.98-32.05 266.98-28.7L266.98-28.7ZM302.12-4.15L302.12-13.2Q302.12-16 299.87-16L299.87-16Q298.87-16 298.37-14.85 297.87-13.7 297.87-11.95L297.87-11.95Q297.87-9.3 297.8-7.55 297.72-5.8 297.47-4.4 297.22-3 296.87-2.2 296.52-1.4 295.92-0.88 295.32-0.35 294.57-0.18 293.82 0 292.67 0L292.67 0Q290.92 0 289.85-0.5 288.77-1 288.32-1.9 287.87-2.8 287.87-4.15L287.87-4.15 287.87-13.2Q287.87-16 285.62-16L285.62-16Q284.72-16 284.15-14.98 283.57-13.95 283.57-12.3L283.57-12.3 283.57-5.35Q283.57-2.35 282.32-1.18 281.07 0 277.92 0L277.92 0Q274.97 0 273.9-1.38 272.82-2.75 272.82-5.9L272.82-5.9 272.82-18.2Q272.82-20.75 274.2-22.3 275.57-23.85 277.87-23.85L277.87-23.85Q281.97-23.85 283.07-21.2L283.07-21.2Q284.97-22.6 286.8-23.15 288.62-23.7 291.07-23.7L291.07-23.7Q294.77-23.7 296.42-20.5L296.42-20.5Q296.67-20.7 296.92-20.9L296.92-20.9Q300.77-23.7 306.37-23.7L306.37-23.7Q309.92-23.7 311.47-21 313.02-18.3 313.02-11.95L313.02-11.95Q313.02-9.3 312.95-7.55 312.87-5.8 312.62-4.4 312.37-3 312-2.2 311.62-1.4 310.95-0.88 310.27-0.35 309.45-0.18 308.62 0 307.37 0L307.37 0Q305.47 0 304.3-0.5 303.12-1 302.62-1.9 302.12-2.8 302.12-4.15L302.12-4.15ZM326.67 0.3L326.67 0.3Q322.72 0.3 320.12-2.93 317.52-6.15 317.52-11.75L317.52-11.75Q317.52-17.45 320.1-20.83 322.67-24.2 326.67-24.2L326.67-24.2Q330.72-24.2 334.17-21.35L334.17-21.35Q335.52-23.85 338.52-23.85L338.52-23.85Q341.22-23.85 342.72-22.68 344.22-21.5 344.22-18.35L344.22-18.35 344.22-5.35Q344.22-2.35 342.97-1.18 341.72 0 338.57 0L338.57 0Q335.27 0 334.22-1.85L334.22-1.85Q331.02 0.3 326.67 0.3ZM333.47-7.2L333.47-16.55Q332.62-18 331.27-18L331.27-18Q329.97-18 329.17-16.1 328.37-14.2 328.37-11.75L328.37-11.75Q328.37-9.45 329.12-7.65 329.87-5.85 331.22-5.85L331.22-5.85Q332.62-5.85 333.47-7.2L333.47-7.2ZM358.02 0.3L358.02 0.3Q354.07 0.3 351.47-2.93 348.87-6.15 348.87-11.8L348.87-11.8Q348.87-17.5 351.42-20.85 353.97-24.2 357.97-24.2L357.97-24.2Q362.02-24.2 365.47-21.4L365.47-21.4Q366.77-23.85 369.77-23.85L369.77-23.85Q372.47-23.85 373.99-22.65 375.52-21.45 375.52-18.35L375.52-18.35 375.52-9.2Q375.52-4.35 374.89-0.88 374.27 2.6 372.74 5.25 371.22 7.9 368.54 9.2 365.87 10.5 361.97 10.5L361.97 10.5Q359.27 10.5 356.97 9.75 354.67 9 353.32 7.9 351.97 6.8 351.22 5.7 350.47 4.6 350.47 3.8L350.47 3.8Q350.47 2.85 351.02 2.2 351.57 1.55 352.57 1.55L352.57 1.55Q353.17 1.55 355.59 2.85 358.02 4.15 359.52 4.15L359.52 4.15Q364.62 4.15 364.62-1.1L364.62-1.1Q361.72 0.3 358.02 0.3ZM364.82-7.2L364.82-7.2 364.77-16.65Q363.92-18.05 362.62-18.05L362.62-18.05Q361.72-18.05 361.04-17.1 360.37-16.15 360.04-14.75 359.72-13.35 359.72-11.8L359.72-11.8Q359.72-9.45 360.47-7.68 361.22-5.9 362.57-5.9L362.57-5.9Q363.92-5.9 364.82-7.2ZM393.87 0.3L393.87 0.3Q387.77 0.3 383.79-2.85 379.82-6 379.82-11.45L379.82-11.45Q379.82-17.35 383.74-20.78 387.67-24.2 393.87-24.2L393.87-24.2Q399.72-24.2 402.44-22.13 405.17-20.05 405.17-16.45L405.17-16.45Q405.17-15.75 404.99-15.1 404.82-14.45 404.44-13.83 404.07-13.2 403.44-12.68 402.82-12.15 402.02-11.73 401.22-11.3 400.12-11.08 399.02-10.85 397.77-10.85L397.77-10.85 390.72-10.8Q391.22-9.2 392.52-8.28 393.82-7.35 395.82-7.35L395.82-7.35Q397.97-7.35 400.22-7.9L400.22-7.9Q401.17-8.15 402.29-8.7 403.42-9.25 403.92-9.25L403.92-9.25Q404.77-9.25 405.24-8.75 405.72-8.25 405.72-7.5L405.72-7.5Q405.72-6.6 404.92-5.33 404.12-4.05 402.69-2.78 401.27-1.5 398.92-0.6 396.57 0.3 393.87 0.3ZM390.47-14L390.47-14Q393.92-14.05 394.22-14.05L394.22-14.05Q394.97-14.05 395.32-14.95L395.32-14.95Q395.57-15.6 395.57-16.75L395.57-16.75Q395.57-19.9 393.67-19.9L393.67-19.9Q392.97-19.9 392.29-19.15 391.62-18.4 391.12-17.03 390.62-15.65 390.47-14ZM421.61-24.2L421.61-24.2Q426.26-24.2 429.36-22.3 432.46-20.4 432.46-18.15L432.46-18.15Q432.46-17.5 431.91-16.95 431.36-16.4 430.51-16.4L430.51-16.4Q429.76-16.4 428.86-16.93 427.96-17.45 427.16-18.05 426.36-18.65 425.06-19.15 423.76-19.65 422.31-19.65L422.31-19.65Q420.36-19.65 420.36-18.45L420.36-18.45Q420.36-17.6 421.36-17.1 422.36-16.6 424.29-16.05 426.21-15.5 427.21-15L427.21-15Q430.96-13.55 432.36-11.88 433.76-10.2 433.76-7.45L433.76-7.45Q433.76-6.1 433.01-4.78 432.26-3.45 430.76-2.27 429.26-1.1 426.69-0.38 424.11 0.35 420.81 0.35L420.81 0.35Q414.36 0.35 411.16-2.6L411.16-2.6Q409.61-4.05 409.61-5.6L409.61-5.6Q409.61-6.55 410.24-7.1 410.86-7.65 412.01-7.65L412.01-7.65Q413.16-7.65 415.51-6.53 417.86-5.4 419.86-5.4L419.86-5.4Q422.61-5.4 422.61-6.75L422.61-6.75Q422.61-7.45 421.16-7.88 419.71-8.3 417.36-8.9 415.01-9.5 413.61-10.4L413.61-10.4Q411.41-11.35 410.54-12.78 409.66-14.2 409.66-16.25L409.66-16.25Q409.66-19.75 412.99-21.98 416.31-24.2 421.61-24.2Z" opacity="1" transform="matrix(1,0,0,1,0,0)" fill="#000000" class="wordmark-text-0" data-fill-palette-color="primary" id="text-0"></path></svg></g></svg></g><g transform="matrix(1,0,0,1,75.54431999999998,51.259012801004296)"><svg viewBox="0 0 244.43136 15.922521305421919" height="15.922521305421919" width="244.43136"><g transform="matrix(1,0,0,1,0,0)"><svg width="244.43136" viewBox="0.3 -37.6 769.01 50.1" height="15.922521305421919" data-palette-color="#ff4f14"><path d="M30.15-36.3L30.15-36.3Q31.65-36.3 33.2-36.58 34.75-36.85 35.95-37.35L35.95-37.35Q35.9-34.15 34.33-32.58 32.75-31 29.7-31L29.7-31Q28.25-31 26.48-31.25 24.7-31.5 21.95-32.1L21.95-32.1 15.05 0 7.85 0 14.95-33.1 14.35-33.1Q9.5-33.1 7.23-30.63 4.95-28.15 4.95-23L4.95-23Q4.95-22.05 5.08-21.35 5.2-20.65 5.5-20L5.5-20Q5.6-19.8 5.63-19.73 5.65-19.65 5.65-19.6L5.65-19.6Q2.85-19.6 1.58-20.78 0.3-21.95 0.3-24.45L0.3-24.45Q0.3-30.4 4.78-33.93 9.25-37.45 17.35-37.45L17.35-37.45Q19-37.45 20.53-37.33 22.05-37.2 24.45-36.85L24.45-36.85Q26.55-36.5 27.73-36.4 28.9-36.3 30.15-36.3ZM36.2-5.35L36.2-5.35Q36.2-6.25 36.42-7.6 36.65-8.95 37.35-11.9L37.35-11.9Q38.05-14.75 38.25-16 38.45-17.25 38.45-18.1L38.45-18.1Q38.45-19.35 37.97-20 37.5-20.65 36.6-20.65L36.6-20.65Q35.4-20.65 34.27-19.23 33.15-17.8 32.8-16.25L32.8-16.25 29.35 0 22.15 0 29.4-34 36.8-35 34.1-22.4Q35.35-23.8 36.8-24.5 38.25-25.2 39.95-25.2L39.95-25.2Q42.6-25.2 44.05-23.75 45.5-22.3 45.5-19.55L45.5-19.55Q45.5-18.4 45.22-16.82 44.95-15.25 44.15-12L44.15-12Q43.5-9.45 43.3-8.4 43.1-7.35 43.1-6.65L43.1-6.65Q43.1-5.6 43.6-5.08 44.1-4.55 45.1-4.55L45.1-4.55Q46.35-4.55 47.25-5.4 48.15-6.25 49.3-8.95L49.3-8.95 51.4-8.95Q49.8-4.3 47.52-2 45.25 0.3 42.1 0.3L42.1 0.3Q39.3 0.3 37.75-1.23 36.2-2.75 36.2-5.35ZM58.59-19L54.59 0 47.4 0 52.7-25 59.9-25 59.25-21.9Q61.45-23.75 62.72-24.38 64-25 65.3-25L65.3-25Q66.84-25 67.8-23.93 68.75-22.85 68.75-21.25L68.75-21.25Q68.75-19.7 67.75-18.65 66.75-17.6 65.15-17.6L65.15-17.6Q64.3-17.6 63.82-18 63.34-18.4 63.15-19.65L63.15-19.65Q63-20.45 62.8-20.68 62.59-20.9 62.25-20.9L62.25-20.9Q61.4-20.9 60.65-20.55 59.9-20.2 58.59-19L58.59-19ZM67.24-7.7L67.24-7.7Q67.24-10.55 68.17-13.75 69.09-16.95 70.69-19.45L70.69-19.45Q72.54-22.4 75.14-23.93 77.74-25.45 80.94-25.45L80.94-25.45Q84.14-25.45 85.74-23.45 87.34-21.45 87.34-17.45L87.34-17.45Q87.44-17.4 87.57-17.38 87.69-17.35 87.89-17.35L87.89-17.35Q89.44-17.35 91.59-18.2 93.74-19.05 95.59-20.35L95.59-20.35 96.04-19Q94.64-17.5 92.32-16.4 89.99-15.3 87.19-14.85L87.19-14.85Q86.59-8.1 83.29-3.95 79.99 0.2 75.24 0.2L75.24 0.2Q71.34 0.2 69.29-1.8 67.24-3.8 67.24-7.7ZM81.34-22.4L81.34-22.4Q78.94-22.4 76.82-17.55 74.69-12.7 74.69-8.35L74.69-8.35Q74.69-6 75.22-5.15 75.74-4.3 77.24-4.3L77.24-4.3Q79.09-4.3 80.77-7.3 82.44-10.3 83.04-14.7L83.04-14.7Q82.34-14.85 82.02-15.38 81.69-15.9 81.69-16.8L81.69-16.8Q81.69-17.75 82.09-18.45 82.49-19.15 83.24-19.5L83.24-19.5Q83.14-21.1 82.72-21.75 82.29-22.4 81.34-22.4ZM98.24-4.55L98.24-4.55Q99.54-4.55 100.56-5.68 101.59-6.8 102.24-8.95L102.24-8.95 105.64-25 112.84-25 109.24-8Q109.14-7.55 109.09-7.18 109.04-6.8 109.04-6.4L109.04-6.4Q109.04-5.4 109.52-4.98 109.99-4.55 111.09-4.55L111.09-4.55Q112.39-4.55 113.44-5.7 114.49-6.85 115.14-8.95L115.14-8.95 117.24-8.95Q115.64-4.35 113.09-2.02 110.54 0.3 107.19 0.3L107.19 0.3Q105.04 0.3 103.74-0.93 102.44-2.15 102.24-4.45L102.24-4.45Q100.79-2.05 98.97-0.88 97.14 0.3 94.84 0.3L94.84 0.3Q92.34 0.3 90.92-1.28 89.49-2.85 89.49-5.7L89.49-5.7Q89.49-6.35 89.59-7.18 89.69-8 89.89-8.95L89.89-8.95 93.29-25 100.49-25 96.89-8Q96.79-7.6 96.77-7.28 96.74-6.95 96.74-6.6L96.74-6.6Q96.74-5.6 97.11-5.08 97.49-4.55 98.24-4.55ZM131.39-22.7L131.39-22.7 131.39-22.4 131.94-25 139.14-25 134.19-1.8Q136.69-2.7 138.11-4.33 139.54-5.95 140.49-8.95L140.49-8.95 142.59-8.95Q141.44-5.15 139.31-2.85 137.19-0.55 133.74 0.4L133.74 0.4 132.99 4Q132.09 8.2 129.84 10.35 127.59 12.5 123.99 12.5L123.99 12.5Q121.44 12.5 119.91 11.2 118.39 9.9 118.39 7.65L118.39 7.65Q118.39 5.2 120.41 3.33 122.44 1.45 126.54 0.2L126.54 0.2 127.14-2.45Q125.84-1.1 124.34-0.4 122.84 0.3 121.14 0.3L121.14 0.3Q118.04 0.3 116.26-1.8 114.49-3.9 114.49-7.75L114.49-7.75Q114.49-10.55 115.34-13.6 116.19-16.65 117.69-19.15L117.69-19.15Q119.54-22.1 121.99-23.68 124.44-25.25 127.34-25.25L127.34-25.25Q129.29-25.25 130.34-24.58 131.39-23.9 131.39-22.7ZM128.39-8.45L130.94-20.3Q130.89-21.1 130.34-21.63 129.79-22.15 128.89-22.15L128.89-22.15Q126.14-22.15 124.01-17.55 121.89-12.95 121.89-8.45L121.89-8.45Q121.89-6.5 122.44-5.53 122.99-4.55 124.39-4.55L124.39-4.55Q125.59-4.55 126.76-5.65 127.94-6.75 128.39-8.45L128.39-8.45ZM125.74 4.15L126.04 2.7Q123.54 3.65 122.34 4.67 121.14 5.7 121.14 6.95L121.14 6.95Q121.14 7.6 121.64 8.1 122.14 8.6 122.84 8.6L122.84 8.6Q123.69 8.6 124.49 7.4 125.29 6.2 125.74 4.15L125.74 4.15ZM152.64-5.35L152.64-5.35Q152.64-6.25 152.86-7.6 153.09-8.95 153.79-11.9L153.79-11.9Q154.49-14.75 154.69-16 154.89-17.25 154.89-18.1L154.89-18.1Q154.89-19.35 154.41-20 153.94-20.65 153.04-20.65L153.04-20.65Q151.84-20.65 150.71-19.23 149.59-17.8 149.24-16.25L149.24-16.25 145.79 0 138.59 0 145.84-34 153.24-35 150.54-22.4Q151.79-23.8 153.24-24.5 154.69-25.2 156.39-25.2L156.39-25.2Q159.04-25.2 160.49-23.75 161.94-22.3 161.94-19.55L161.94-19.55Q161.94-18.4 161.66-16.82 161.39-15.25 160.59-12L160.59-12Q159.94-9.45 159.74-8.4 159.54-7.35 159.54-6.65L159.54-6.65Q159.54-5.6 160.04-5.08 160.54-4.55 161.54-4.55L161.54-4.55Q162.79-4.55 163.69-5.4 164.59-6.25 165.74-8.95L165.74-8.95 167.84-8.95Q166.24-4.3 163.96-2 161.69 0.3 158.54 0.3L158.54 0.3Q155.74 0.3 154.19-1.23 152.64-2.75 152.64-5.35ZM208.18-37.25L211.48-37.25 201.78-15.4 198.48 0 190.48 0 193.78-15.4 188.98-34.15Q185.38-32.85 183.46-29.98 181.53-27.1 181.53-23.05L181.53-23.05Q181.53-22.1 181.66-21.4 181.78-20.7 182.08-20.05L182.08-20.05Q182.18-19.85 182.21-19.78 182.23-19.7 182.23-19.65L182.23-19.65Q179.43-19.65 178.16-20.83 176.88-22 176.88-24.5L176.88-24.5Q176.88-27 178.56-29.5 180.23-32 183.23-34L183.23-34Q185.78-35.65 188.71-36.58 191.63-37.5 194.43-37.5L194.43-37.5Q194.78-37.5 195.21-37.48 195.63-37.45 196.43-37.4L196.43-37.4 200.78-19.5 208.18-37.25ZM206.88-7.7L206.88-7.7Q206.88-10.55 207.8-13.75 208.73-16.95 210.33-19.45L210.33-19.45Q212.18-22.4 214.78-23.93 217.38-25.45 220.58-25.45L220.58-25.45Q223.78-25.45 225.38-23.45 226.98-21.45 226.98-17.45L226.98-17.45Q227.08-17.4 227.2-17.38 227.33-17.35 227.53-17.35L227.53-17.35Q229.08-17.35 231.23-18.2 233.38-19.05 235.23-20.35L235.23-20.35 235.68-19Q234.28-17.5 231.95-16.4 229.63-15.3 226.83-14.85L226.83-14.85Q226.23-8.1 222.93-3.95 219.63 0.2 214.88 0.2L214.88 0.2Q210.98 0.2 208.93-1.8 206.88-3.8 206.88-7.7ZM220.98-22.4L220.98-22.4Q218.58-22.4 216.45-17.55 214.33-12.7 214.33-8.35L214.33-8.35Q214.33-6 214.85-5.15 215.38-4.3 216.88-4.3L216.88-4.3Q218.73-4.3 220.4-7.3 222.08-10.3 222.68-14.7L222.68-14.7Q221.98-14.85 221.65-15.38 221.33-15.9 221.33-16.8L221.33-16.8Q221.33-17.75 221.73-18.45 222.13-19.15 222.88-19.5L222.88-19.5Q222.78-21.1 222.35-21.75 221.93-22.4 220.98-22.4ZM237.88-4.55L237.88-4.55Q239.18-4.55 240.2-5.68 241.23-6.8 241.88-8.95L241.88-8.95 245.28-25 252.48-25 248.88-8Q248.78-7.55 248.73-7.18 248.68-6.8 248.68-6.4L248.68-6.4Q248.68-5.4 249.15-4.98 249.63-4.55 250.73-4.55L250.73-4.55Q252.03-4.55 253.08-5.7 254.13-6.85 254.78-8.95L254.78-8.95 256.88-8.95Q255.28-4.35 252.73-2.02 250.18 0.3 246.83 0.3L246.83 0.3Q244.68 0.3 243.38-0.93 242.08-2.15 241.88-4.45L241.88-4.45Q240.43-2.05 238.6-0.88 236.78 0.3 234.48 0.3L234.48 0.3Q231.98 0.3 230.55-1.28 229.13-2.85 229.13-5.7L229.13-5.7Q229.13-6.35 229.23-7.18 229.33-8 229.53-8.95L229.53-8.95 232.93-25 240.13-25 236.53-8Q236.43-7.6 236.4-7.28 236.38-6.95 236.38-6.6L236.38-6.6Q236.38-5.6 236.75-5.08 237.13-4.55 237.88-4.55ZM264.07-19L260.07 0 252.87 0 258.17-25 265.37-25 264.72-21.9Q266.92-23.75 268.2-24.38 269.47-25 270.77-25L270.77-25Q272.32-25 273.27-23.93 274.22-22.85 274.22-21.25L274.22-21.25Q274.22-19.7 273.22-18.65 272.22-17.6 270.62-17.6L270.62-17.6Q269.77-17.6 269.3-18 268.82-18.4 268.62-19.65L268.62-19.65Q268.47-20.45 268.27-20.68 268.07-20.9 267.72-20.9L267.72-20.9Q266.87-20.9 266.12-20.55 265.37-20.2 264.07-19L264.07-19ZM293.47-8.95L293.47-8.95Q293.47-6.55 294.69-5.23 295.92-3.9 298.22-3.9L298.22-3.9Q300.87-3.9 303.57-5.35 306.27-6.8 307.47-9L307.47-9 308.62-8.5Q306.77-4.25 302.69-1.68 298.62 0.9 293.97 0.9L293.97 0.9Q289.67 0.9 287.22-1.5 284.77-3.9 284.77-7.9L284.77-7.9Q284.77-12.25 287.42-16.07 290.07-19.9 294.02-20.85L294.02-20.85Q292.52-21.9 291.74-23.45 290.97-25 290.97-26.85L290.97-26.85Q290.97-31.05 294.19-34.33 297.42-37.6 301.92-37.6L301.92-37.6Q305.12-37.6 307.09-35.9 309.07-34.2 309.07-31.35L309.07-31.35Q309.07-29.15 307.99-27.65 306.92-26.15 305.37-26.15L305.37-26.15Q304.67-26.15 304.09-26.5 303.52-26.85 303.02-27.5L303.02-27.5Q303.92-27.8 304.57-29.13 305.22-30.45 305.22-31.85L305.22-31.85Q305.22-33.15 304.47-33.9 303.72-34.65 302.47-34.65L302.47-34.65Q300.37-34.65 298.87-32.52 297.37-30.4 297.37-27.6L297.37-27.6Q297.37-25.1 298.69-23.33 300.02-21.55 302.42-20.9L302.42-20.9Q298.72-20.05 296.09-16.43 293.47-12.8 293.47-8.95ZM315.72-4.55L315.72-4.55Q316.97-4.55 317.97-5.6 318.97-6.65 319.62-8.65L319.62-8.65 323.12-25 330.32-25 325.37-1.8Q327.87-2.7 329.29-4.33 330.72-5.95 331.67-8.95L331.67-8.95 333.77-8.95Q332.62-5.15 330.49-2.85 328.37-0.55 324.92 0.4L324.92 0.4 324.17 4Q323.27 8.2 321.02 10.35 318.77 12.5 315.17 12.5L315.17 12.5Q312.62 12.5 311.09 11.2 309.57 9.9 309.57 7.65L309.57 7.65Q309.57 5.2 311.59 3.33 313.62 1.45 317.72 0.2L317.72 0.2 318.32-2.5Q317.07-1.1 315.59-0.4 314.12 0.3 312.32 0.3L312.32 0.3Q309.82 0.3 308.39-1.28 306.97-2.85 306.97-5.7L306.97-5.7Q306.97-6.35 307.07-7.18 307.17-8 307.37-8.95L307.37-8.95 310.77-25 317.97-25 314.37-8Q314.32-7.7 314.27-7.38 314.22-7.05 314.22-6.75L314.22-6.75Q314.22-5.7 314.59-5.13 314.97-4.55 315.72-4.55ZM316.92 4.15L317.22 2.7Q314.72 3.65 313.52 4.67 312.32 5.7 312.32 6.95L312.32 6.95Q312.32 7.6 312.82 8.1 313.32 8.6 314.02 8.6L314.02 8.6Q314.87 8.6 315.67 7.4 316.47 6.2 316.92 4.15L316.92 4.15ZM350.01-20.65L350.01-20.65Q350.01-16.5 346.61-13.43 343.21-10.35 338.51-10.1L338.51-10.1Q338.46-9.25 338.44-8.83 338.41-8.4 338.41-8.1L338.41-8.1Q338.41-5.8 339.19-4.85 339.96-3.9 342.01-3.9L342.01-3.9Q344.36-3.9 346.34-4.98 348.31-6.05 350.86-8.95L350.86-8.95 352.56-8.95Q349.66-4.25 346.26-1.98 342.86 0.3 338.81 0.3L338.81 0.3Q334.96 0.3 332.99-1.7 331.01-3.7 331.01-7.65L331.01-7.65Q331.01-10.5 331.91-13.7 332.81-16.9 334.31-19.4L334.31-19.4Q336.16-22.4 338.74-23.93 341.31-25.45 344.51-25.45L344.51-25.45Q347.26-25.45 348.64-24.28 350.01-23.1 350.01-20.65ZM344.91-22.8L344.91-22.8Q343.21-22.8 341.49-19.78 339.76-16.75 338.91-12.5L338.91-12.5Q341.81-12.7 343.99-15.18 346.16-17.65 346.16-20.75L346.16-20.75Q346.16-21.8 345.86-22.3 345.56-22.8 344.91-22.8ZM365.61-8.35L365.61-8.35Q365.61-7.75 365.56-7.3 365.51-6.85 365.41-6.45L365.41-6.45Q366.41-7.05 367.36-7.7 368.31-8.35 369.01-8.95L369.01-8.95 371.11-8.95Q369.56-7.15 367.69-5.63 365.81-4.1 363.46-2.7L363.46-2.7Q362.11-1.25 360.01-0.48 357.91 0.3 355.61 0.3L355.61 0.3Q352.26 0.3 350.29-1.53 348.31-3.35 348.31-6.1L348.31-6.1Q348.31-7.65 349.06-8.93 349.81-10.2 350.96-10.75L350.96-10.75Q352.66-13.8 354.14-17.28 355.61-20.75 357.11-25.55L357.11-25.55 364.51-26.55Q364.66-22.8 364.86-19.7 365.06-16.6 365.36-12.95L365.36-12.95Q365.51-10.85 365.56-10 365.61-9.15 365.61-8.35ZM357.41-20.15L357.41-20.15Q356.76-18.1 355.84-15.88 354.91-13.65 353.36-10.7L353.36-10.7Q353.91-10.45 354.21-10 354.51-9.55 354.51-8.95L354.51-8.95Q354.51-8 353.86-7.25 353.21-6.5 352.31-6.5L352.31-6.5Q351.81-6.5 351.46-6.68 351.11-6.85 350.96-7.15L350.96-7.15Q350.96-5.3 351.69-4.48 352.41-3.65 354.01-3.65L354.01-3.65Q356.06-3.65 357.21-4.85 358.36-6.05 358.36-8.3L358.36-8.3Q358.36-9 358.31-9.73 358.26-10.45 358.11-12.15L358.11-12.15Q357.86-14.5 357.71-16.3 357.56-18.1 357.41-20.15ZM381.51-18.75L381.51-18.75Q381.51-17.1 380.33-15.95 379.16-14.8 377.51-14.8L377.51-14.8Q375.86-14.8 374.71-15.95 373.56-17.1 373.56-18.75L373.56-18.75Q373.56-20.4 374.71-21.58 375.86-22.75 377.51-22.75L377.51-22.75Q379.16-22.75 380.33-21.58 381.51-20.4 381.51-18.75ZM379.01-6.75L379.01-6.75Q379.01-5.1 377.83-3.95 376.66-2.8 375.01-2.8L375.01-2.8Q373.36-2.8 372.21-3.95 371.06-5.1 371.06-6.75L371.06-6.75Q371.06-8.4 372.21-9.58 373.36-10.75 375.01-10.75L375.01-10.75Q376.66-10.75 377.83-9.58 379.01-8.4 379.01-6.75ZM417.05-20.35L419.95-33.95Q417.9-32.85 415.6-29.83 413.3-26.8 410.95-22.1L410.95-22.1Q412.75-21.75 414.28-21.3 415.8-20.85 417.05-20.35L417.05-20.35ZM423.85-37.5L423.85-37.5Q424.9-37.5 425.95-37.33 427-37.15 427.8-36.8L427.8-36.8 419.95 0 412.75 0 416.6-18.15Q414.85-18.95 413.3-19.38 411.75-19.8 409.9-19.95L409.9-19.95Q407.05-13.75 405.23-7.35 403.4-0.95 403.4 2.9L403.4 2.9Q403.4 3.8 403.58 4.48 403.75 5.15 404.1 5.7L404.1 5.7Q400.3 5.7 398.85 4.4 397.4 3.1 397.4 0.4L397.4 0.4Q397.4-2.95 399.43-8.55 401.45-14.15 404.75-19.95L404.75-19.95Q402.2-19.8 400.78-19.15 399.35-18.5 398.9-17.35L398.9-17.35Q399.1-17.35 399.33-16.82 399.55-16.3 399.55-15.8L399.55-15.8Q399.55-14.95 398.75-14.4 397.95-13.85 396.75-13.85L396.75-13.85Q395.35-13.85 394.5-14.63 393.65-15.4 393.65-16.75L393.65-16.75Q393.65-19.35 396.58-21.13 399.5-22.9 403.85-22.9L403.85-22.9Q404.35-22.9 405-22.88 405.65-22.85 406.45-22.75L406.45-22.75Q410.85-29.7 415.4-33.6 419.95-37.5 423.85-37.5ZM444.95-20.65L444.95-20.65Q444.95-16.5 441.55-13.43 438.15-10.35 433.45-10.1L433.45-10.1Q433.4-9.25 433.38-8.83 433.35-8.4 433.35-8.1L433.35-8.1Q433.35-5.8 434.13-4.85 434.9-3.9 436.95-3.9L436.95-3.9Q439.3-3.9 441.28-4.98 443.25-6.05 445.8-8.95L445.8-8.95 447.5-8.95Q444.6-4.25 441.2-1.98 437.8 0.3 433.75 0.3L433.75 0.3Q429.9 0.3 427.93-1.7 425.95-3.7 425.95-7.65L425.95-7.65Q425.95-10.5 426.85-13.7 427.75-16.9 429.25-19.4L429.25-19.4Q431.1-22.4 433.68-23.93 436.25-25.45 439.45-25.45L439.45-25.45Q442.2-25.45 443.58-24.28 444.95-23.1 444.95-20.65ZM439.85-22.8L439.85-22.8Q438.15-22.8 436.43-19.78 434.7-16.75 433.85-12.5L433.85-12.5Q436.75-12.7 438.93-15.18 441.1-17.65 441.1-20.75L441.1-20.75Q441.1-21.8 440.8-22.3 440.5-22.8 439.85-22.8ZM460.55-8.35L460.55-8.35Q460.55-7.75 460.5-7.3 460.45-6.85 460.35-6.45L460.35-6.45Q461.35-7.05 462.3-7.7 463.25-8.35 463.95-8.95L463.95-8.95 466.05-8.95Q464.5-7.15 462.62-5.63 460.75-4.1 458.4-2.7L458.4-2.7Q457.05-1.25 454.95-0.48 452.85 0.3 450.55 0.3L450.55 0.3Q447.2 0.3 445.22-1.53 443.25-3.35 443.25-6.1L443.25-6.1Q443.25-7.65 444-8.93 444.75-10.2 445.9-10.75L445.9-10.75Q447.6-13.8 449.07-17.28 450.55-20.75 452.05-25.55L452.05-25.55 459.45-26.55Q459.6-22.8 459.8-19.7 460-16.6 460.3-12.95L460.3-12.95Q460.45-10.85 460.5-10 460.55-9.15 460.55-8.35ZM452.35-20.15L452.35-20.15Q451.7-18.1 450.77-15.88 449.85-13.65 448.3-10.7L448.3-10.7Q448.85-10.45 449.15-10 449.45-9.55 449.45-8.95L449.45-8.95Q449.45-8 448.8-7.25 448.15-6.5 447.25-6.5L447.25-6.5Q446.75-6.5 446.4-6.68 446.05-6.85 445.9-7.15L445.9-7.15Q445.9-5.3 446.62-4.48 447.35-3.65 448.95-3.65L448.95-3.65Q451-3.65 452.15-4.85 453.3-6.05 453.3-8.3L453.3-8.3Q453.3-9 453.25-9.73 453.2-10.45 453.05-12.15L453.05-12.15Q452.8-14.5 452.65-16.3 452.5-18.1 452.35-20.15ZM465.3-23L465.7-25 467.35-25 468.85-31.9 476.25-32.9 474.55-25 477.55-25 477.15-23 474.15-23 470.95-8Q470.85-7.55 470.8-7.18 470.75-6.8 470.75-6.4L470.75-6.4Q470.75-5.4 471.22-4.98 471.7-4.55 472.8-4.55L472.8-4.55Q474.2-4.55 475.45-5.78 476.7-7 477.3-8.95L477.3-8.95 479.4-8.95Q477.8-4.4 475.1-2.05 472.4 0.3 468.9 0.3L468.9 0.3Q466.4 0.3 464.97-1.28 463.55-2.85 463.55-5.7L463.55-5.7Q463.55-6.35 463.65-7.18 463.75-8 463.95-8.95L463.95-8.95 466.95-23 465.3-23ZM489.79-5.35L489.79-5.35Q489.79-6.25 490.02-7.6 490.24-8.95 490.94-11.9L490.94-11.9Q491.64-14.75 491.84-16 492.04-17.25 492.04-18.1L492.04-18.1Q492.04-19.35 491.57-20 491.09-20.65 490.19-20.65L490.19-20.65Q488.99-20.65 487.87-19.23 486.74-17.8 486.39-16.25L486.39-16.25 482.94 0 475.74 0 482.99-34 490.39-35 487.69-22.4Q488.94-23.8 490.39-24.5 491.84-25.2 493.54-25.2L493.54-25.2Q496.19-25.2 497.64-23.75 499.09-22.3 499.09-19.55L499.09-19.55Q499.09-18.4 498.82-16.82 498.54-15.25 497.74-12L497.74-12Q497.09-9.45 496.89-8.4 496.69-7.35 496.69-6.65L496.69-6.65Q496.69-5.6 497.19-5.08 497.69-4.55 498.69-4.55L498.69-4.55Q499.94-4.55 500.84-5.4 501.74-6.25 502.89-8.95L502.89-8.95 504.99-8.95Q503.39-4.3 501.12-2 498.84 0.3 495.69 0.3L495.69 0.3Q492.89 0.3 491.34-1.23 489.79-2.75 489.79-5.35ZM520.99-20.65L520.99-20.65Q520.99-16.5 517.59-13.43 514.19-10.35 509.49-10.1L509.49-10.1Q509.44-9.25 509.42-8.83 509.39-8.4 509.39-8.1L509.39-8.1Q509.39-5.8 510.17-4.85 510.94-3.9 512.99-3.9L512.99-3.9Q515.34-3.9 517.32-4.98 519.29-6.05 521.84-8.95L521.84-8.95 523.54-8.95Q520.64-4.25 517.24-1.98 513.84 0.3 509.79 0.3L509.79 0.3Q505.94 0.3 503.97-1.7 501.99-3.7 501.99-7.65L501.99-7.65Q501.99-10.5 502.89-13.7 503.79-16.9 505.29-19.4L505.29-19.4Q507.14-22.4 509.72-23.93 512.29-25.45 515.49-25.45L515.49-25.45Q518.24-25.45 519.62-24.28 520.99-23.1 520.99-20.65ZM515.89-22.8L515.89-22.8Q514.19-22.8 512.47-19.78 510.74-16.75 509.89-12.5L509.89-12.5Q512.79-12.7 514.97-15.18 517.14-17.65 517.14-20.75L517.14-20.75Q517.14-21.8 516.84-22.3 516.54-22.8 515.89-22.8ZM523.24-23L523.64-25 525.29-25 526.79-31.9 534.19-32.9 532.49-25 535.49-25 535.09-23 532.09-23 528.89-8Q528.79-7.55 528.74-7.18 528.69-6.8 528.69-6.4L528.69-6.4Q528.69-5.4 529.16-4.98 529.64-4.55 530.74-4.55L530.74-4.55Q532.14-4.55 533.39-5.78 534.64-7 535.24-8.95L535.24-8.95 537.34-8.95Q535.74-4.4 533.04-2.05 530.34 0.3 526.84 0.3L526.84 0.3Q524.34 0.3 522.91-1.28 521.49-2.85 521.49-5.7L521.49-5.7Q521.49-6.35 521.59-7.18 521.69-8 521.89-8.95L521.89-8.95 524.89-23 523.24-23ZM547.59-31.65L547.59-31.65Q547.59-30 546.41-28.85 545.24-27.7 543.59-27.7L543.59-27.7Q541.94-27.7 540.79-28.85 539.64-30 539.64-31.65L539.64-31.65Q539.64-33.3 540.79-34.48 541.94-35.65 543.59-35.65L543.59-35.65Q545.24-35.65 546.41-34.48 547.59-33.3 547.59-31.65ZM534.84-5.7L534.84-5.7Q534.84-6.35 534.94-7.18 535.04-8 535.24-8.95L535.24-8.95 538.64-25 545.84-25 542.24-8Q542.14-7.55 542.09-7.18 542.04-6.8 542.04-6.4L542.04-6.4Q542.04-5.4 542.51-4.98 542.99-4.55 544.09-4.55L544.09-4.55Q545.49-4.55 546.74-5.78 547.99-7 548.59-8.95L548.59-8.95 550.69-8.95Q549.09-4.4 546.39-2.05 543.69 0.3 540.19 0.3L540.19 0.3Q537.69 0.3 536.26-1.28 534.84-2.85 534.84-5.7ZM565.63-20.85L565.63-20.85Q565.63-19.15 564.91-18.18 564.18-17.2 562.98-17.2L562.98-17.2Q562.58-17.2 562.13-17.35 561.68-17.5 561.23-17.8L561.23-17.8Q561.53-18.6 561.68-19.35 561.83-20.1 561.83-20.75L561.83-20.75Q561.83-21.75 561.48-22.28 561.13-22.8 560.43-22.8L560.43-22.8Q558.23-22.8 556.13-17.73 554.03-12.65 554.03-8.1L554.03-8.1Q554.03-5.8 554.81-4.85 555.58-3.9 557.63-3.9L557.63-3.9Q559.98-3.9 561.96-4.98 563.93-6.05 566.48-8.95L566.48-8.95 568.18-8.95Q565.28-4.25 561.88-1.98 558.48 0.3 554.43 0.3L554.43 0.3Q550.58 0.3 548.61-1.7 546.63-3.7 546.63-7.65L546.63-7.65Q546.63-10.5 547.51-13.7 548.38-16.9 549.93-19.4L549.93-19.4Q551.78-22.4 554.36-23.93 556.93-25.45 560.08-25.45L560.08-25.45Q562.83-25.45 564.23-24.28 565.63-23.1 565.63-20.85ZM582.18-8.35L582.18-8.35Q582.18-7.75 582.13-7.3 582.08-6.85 581.98-6.45L581.98-6.45Q582.98-7.05 583.93-7.7 584.88-8.35 585.58-8.95L585.58-8.95 587.68-8.95Q586.13-7.15 584.26-5.63 582.38-4.1 580.03-2.7L580.03-2.7Q578.68-1.25 576.58-0.48 574.48 0.3 572.18 0.3L572.18 0.3Q568.83 0.3 566.86-1.53 564.88-3.35 564.88-6.1L564.88-6.1Q564.88-7.65 565.63-8.93 566.38-10.2 567.53-10.75L567.53-10.75Q569.23-13.8 570.71-17.28 572.18-20.75 573.68-25.55L573.68-25.55 581.08-26.55Q581.23-22.8 581.43-19.7 581.63-16.6 581.93-12.95L581.93-12.95Q582.08-10.85 582.13-10 582.18-9.15 582.18-8.35ZM573.98-20.15L573.98-20.15Q573.33-18.1 572.41-15.88 571.48-13.65 569.93-10.7L569.93-10.7Q570.48-10.45 570.78-10 571.08-9.55 571.08-8.95L571.08-8.95Q571.08-8 570.43-7.25 569.78-6.5 568.88-6.5L568.88-6.5Q568.38-6.5 568.03-6.68 567.68-6.85 567.53-7.15L567.53-7.15Q567.53-5.3 568.26-4.48 568.98-3.65 570.58-3.65L570.58-3.65Q572.63-3.65 573.78-4.85 574.93-6.05 574.93-8.3L574.93-8.3Q574.93-9 574.88-9.73 574.83-10.45 574.68-12.15L574.68-12.15Q574.43-14.5 574.28-16.3 574.13-18.1 573.98-20.15ZM605.48-8.95L605.48-8.95Q605.48-6.55 606.7-5.23 607.93-3.9 610.23-3.9L610.23-3.9Q612.88-3.9 615.58-5.35 618.28-6.8 619.48-9L619.48-9 620.63-8.5Q618.78-4.25 614.7-1.68 610.63 0.9 605.98 0.9L605.98 0.9Q601.68 0.9 599.23-1.5 596.78-3.9 596.78-7.9L596.78-7.9Q596.78-12.25 599.43-16.07 602.08-19.9 606.03-20.85L606.03-20.85Q604.53-21.9 603.75-23.45 602.98-25 602.98-26.85L602.98-26.85Q602.98-31.05 606.2-34.33 609.43-37.6 613.93-37.6L613.93-37.6Q617.13-37.6 619.1-35.9 621.08-34.2 621.08-31.35L621.08-31.35Q621.08-29.15 620-27.65 618.93-26.15 617.38-26.15L617.38-26.15Q616.68-26.15 616.1-26.5 615.53-26.85 615.03-27.5L615.03-27.5Q615.93-27.8 616.58-29.13 617.23-30.45 617.23-31.85L617.23-31.85Q617.23-33.15 616.48-33.9 615.73-34.65 614.48-34.65L614.48-34.65Q612.38-34.65 610.88-32.52 609.38-30.4 609.38-27.6L609.38-27.6Q609.38-25.1 610.7-23.33 612.03-21.55 614.43-20.9L614.43-20.9Q610.73-20.05 608.1-16.43 605.48-12.8 605.48-8.95ZM641.57-27.85L641.57-27.85Q642.82-27.85 643.6-26.53 644.37-25.2 644.37-23.3L644.37-23.3Q644.37-21.45 643.17-19.43 641.97-17.4 637.42-12.4L637.42-12.4 637.87-8.9Q638.17-6.6 638.87-5.58 639.57-4.55 640.97-4.55L640.97-4.55Q642.37-4.55 643.62-5.78 644.87-7 645.47-8.95L645.47-8.95 647.57-8.95Q646.02-4.45 643.37-2.08 640.72 0.3 637.37 0.3L637.37 0.3Q635.02 0.3 633.5-1.88 631.97-4.05 631.27-8.4L631.27-8.4 624.37 0 620.77 0 630.87-11.4 630.07-17Q629.72-19.3 629.32-20.23 628.92-21.15 628.17-21.15L628.17-21.15Q626.42-21.15 624.52-17.78 622.62-14.4 621.47-8.95L621.47-8.95 619.37-8.95Q620.97-16.65 624.05-20.95 627.12-25.25 631.17-25.25L631.17-25.25Q633.47-25.25 634.85-23.73 636.22-22.2 636.57-19.3L636.57-19.3 637.02-15.5Q639.27-18.05 640.3-19.73 641.32-21.4 641.37-22.7L641.37-22.7Q641.02-22.65 640.85-22.63 640.67-22.6 640.52-22.6L640.52-22.6Q639.37-22.6 638.77-23.33 638.17-24.05 638.17-25.4L638.17-25.4Q638.17-26.55 639.1-27.2 640.02-27.85 641.57-27.85ZM654.82-19.2L651.87-5.2Q652.07-4.65 652.57-4.35 653.07-4.05 653.77-4.05L653.77-4.05Q656.92-4.05 658.85-8.1 660.77-12.15 660.77-17.5L660.77-17.5Q660.77-19.55 660.17-20.6 659.57-21.65 658.27-21.65L658.27-21.65Q657.37-21.65 656.42-20.98 655.47-20.3 654.82-19.2L654.82-19.2ZM651.07-1.5L648.47 10.7 640.92 12.5 649.27-26.85 656.47-26.85 655.67-23.1Q656.92-24.15 658.37-24.7 659.82-25.25 661.52-25.25L661.52-25.25Q664.52-25.25 666.07-23.25 667.62-21.25 667.62-17.35L667.62-17.35Q667.62-9.7 664.35-4.7 661.07 0.3 655.32 0.3L655.32 0.3Q653.72 0.3 652.64-0.15 651.57-0.6 651.07-1.5L651.07-1.5ZM668.47-5.7L668.47-5.7Q668.47-6.35 668.57-7.18 668.67-8 668.87-8.95L668.87-8.95 674.22-34 681.62-35 675.87-8Q675.77-7.55 675.72-7.18 675.67-6.8 675.67-6.4L675.67-6.4Q675.67-5.4 676.14-4.98 676.62-4.55 677.72-4.55L677.72-4.55Q679.12-4.55 680.37-5.78 681.62-7 682.22-8.95L682.22-8.95 684.32-8.95Q682.72-4.4 680.02-2.05 677.32 0.3 673.82 0.3L673.82 0.3Q671.32 0.3 669.89-1.28 668.47-2.85 668.47-5.7ZM680.11-7.7L680.11-7.7Q680.11-10.55 681.04-13.75 681.96-16.95 683.56-19.45L683.56-19.45Q685.41-22.4 688.01-23.93 690.61-25.45 693.81-25.45L693.81-25.45Q697.01-25.45 698.61-23.45 700.21-21.45 700.21-17.45L700.21-17.45Q700.31-17.4 700.44-17.38 700.56-17.35 700.76-17.35L700.76-17.35Q702.31-17.35 704.46-18.2 706.61-19.05 708.46-20.35L708.46-20.35 708.91-19Q707.51-17.5 705.19-16.4 702.86-15.3 700.06-14.85L700.06-14.85Q699.46-8.1 696.16-3.95 692.86 0.2 688.11 0.2L688.11 0.2Q684.21 0.2 682.16-1.8 680.11-3.8 680.11-7.7ZM694.21-22.4L694.21-22.4Q691.81-22.4 689.69-17.55 687.56-12.7 687.56-8.35L687.56-8.35Q687.56-6 688.09-5.15 688.61-4.3 690.11-4.3L690.11-4.3Q691.96-4.3 693.64-7.3 695.31-10.3 695.91-14.7L695.91-14.7Q695.21-14.85 694.89-15.38 694.56-15.9 694.56-16.8L694.56-16.8Q694.56-17.75 694.96-18.45 695.36-19.15 696.11-19.5L696.11-19.5Q696.01-21.1 695.59-21.75 695.16-22.4 694.21-22.4ZM712.06-19L708.06 0 700.86 0 706.16-25 713.36-25 712.71-21.9Q714.91-23.75 716.19-24.38 717.46-25 718.76-25L718.76-25Q720.31-25 721.26-23.93 722.21-22.85 722.21-21.25L722.21-21.25Q722.21-19.7 721.21-18.65 720.21-17.6 718.61-17.6L718.61-17.6Q717.76-17.6 717.29-18 716.81-18.4 716.61-19.65L716.61-19.65Q716.46-20.45 716.26-20.68 716.06-20.9 715.71-20.9L715.71-20.9Q714.86-20.9 714.11-20.55 713.36-20.2 712.06-19L712.06-19ZM739.81-20.65L739.81-20.65Q739.81-16.5 736.41-13.43 733.01-10.35 728.31-10.1L728.31-10.1Q728.26-9.25 728.23-8.83 728.21-8.4 728.21-8.1L728.21-8.1Q728.21-5.8 728.98-4.85 729.76-3.9 731.81-3.9L731.81-3.9Q734.16-3.9 736.13-4.98 738.11-6.05 740.66-8.95L740.66-8.95 742.36-8.95Q739.46-4.25 736.06-1.98 732.66 0.3 728.61 0.3L728.61 0.3Q724.76 0.3 722.78-1.7 720.81-3.7 720.81-7.65L720.81-7.65Q720.81-10.5 721.71-13.7 722.61-16.9 724.11-19.4L724.11-19.4Q725.96-22.4 728.53-23.93 731.11-25.45 734.31-25.45L734.31-25.45Q737.06-25.45 738.43-24.28 739.81-23.1 739.81-20.65ZM734.71-22.8L734.71-22.8Q733.01-22.8 731.28-19.78 729.56-16.75 728.71-12.5L728.71-12.5Q731.61-12.7 733.78-15.18 735.96-17.65 735.96-20.75L735.96-20.75Q735.96-21.8 735.66-22.3 735.36-22.8 734.71-22.8ZM747.71-8.45L747.71-8.45Q747.71-6.5 748.26-5.53 748.81-4.55 750.21-4.55L750.21-4.55Q751.46-4.55 752.66-5.73 753.86-6.9 754.31-8.7L754.31-8.7 754.31-8.95 756.76-20.4Q756.61-21.2 756.08-21.68 755.56-22.15 754.71-22.15L754.71-22.15Q751.96-22.15 749.83-17.55 747.71-12.95 747.71-8.45ZM757.21-22.7L757.21-22.7 757.21-22.5 759.66-34 767.06-35 761.31-8Q761.21-7.55 761.16-7.18 761.11-6.8 761.11-6.4L761.11-6.4Q761.11-5.4 761.58-4.98 762.06-4.55 763.16-4.55L763.16-4.55Q764.46-4.55 765.51-5.7 766.56-6.85 767.21-8.95L767.21-8.95 769.31-8.95Q767.76-4.5 765.28-2.25 762.81 0 759.26 0L759.26 0Q757.21 0 755.93-1.13 754.66-2.25 754.36-4.3L754.36-4.3Q752.86-2 751.01-0.85 749.16 0.3 746.96 0.3L746.96 0.3Q743.86 0.3 742.08-1.8 740.31-3.9 740.31-7.75L740.31-7.75Q740.31-10.55 741.16-13.6 742.01-16.65 743.51-19.15L743.51-19.15Q745.36-22.1 747.81-23.68 750.26-25.25 753.16-25.25L753.16-25.25Q755.11-25.25 756.16-24.58 757.21-23.9 757.21-22.7Z" opacity="1" transform="matrix(1,0,0,1,0,0)" fill="#000000" class="slogan-text-1" data-fill-palette-color="secondary" id="text-1"></path></svg></g></svg></g></svg></g></svg></g><g transform="matrix(1,0,0,1,116.43075801774698,0)"><svg viewBox="0 0 162.65848396450602 162.65848396450602" height="162.65848396450602" width="162.65848396450602"><g><svg></svg></g><g id="icon-0"><svg viewBox="0 0 162.65848396450602 162.65848396450602" height="162.65848396450602" width="162.65848396450602"><g><path d="M0 81.329c0-44.917 36.412-81.329 81.329-81.329 44.917 0 81.329 36.412 81.329 81.329 0 44.917-36.412 81.329-81.329 81.329-44.917 0-81.329-36.412-81.329-81.329zM81.329 158.919c42.852 0 77.59-34.738 77.59-77.59 0-42.852-34.738-77.59-77.59-77.589-42.852 0-77.59 34.738-77.589 77.589 0 42.852 34.738 77.59 77.589 77.59z" data-fill-palette-color="accent" fill="#000000" stroke="transparent"></path><ellipse rx="80.51594956243048" ry="80.51594956243048" cx="81.32924198225301" cy="81.32924198225301" fill="#000000" stroke="transparent" stroke-width="0" fill-opacity="1" data-fill-palette-color="accent"></ellipse></g><g transform="matrix(1,0,0,1,35.107125619841014,35.107125619841014)"><svg viewBox="0 0 92.44423272482399 92.44423272482399" height="92.44423272482399" width="92.44423272482399"><g><svg xmlns="http://www.w3.org/2000/svg" xmlns:xlink="http://www.w3.org/1999/xlink" version="1.1" x="0" y="0" viewBox="5 5.03 90 90" enable-background="new 0 0 100 100" xml:space="preserve" height="92.44423272482399" width="92.44423272482399" class="icon-cg-0" data-fill-palette-color="quaternary" id="cg-0"><g fill="#000000" data-fill-palette-color="quaternary"><g fill="#000000" data-fill-palette-color="quaternary"><path fill-rule="evenodd" clip-rule="evenodd" fill="#ffffff" d="M7.812 5.03h84.375C93.741 5.03 95 6.289 95 7.843v84.375c0 1.553-1.259 2.812-2.813 2.812H7.812C6.259 95.03 5 93.771 5 92.218V7.843C5 6.289 6.259 5.03 7.812 5.03zM10.625 89.405h78.75v-11.25h-78.75V89.405zM10.625 72.53h78.75V10.655h-78.75V72.53z" data-fill-palette-color="quaternary"></path></g><g fill="#000000" data-fill-palette-color="quaternary"><path fill-rule="evenodd" clip-rule="evenodd" fill="#ffffff" d="M16.366 64.172c-0.152 1.946 0.776 2.855 2.872 2.733h61.611c1.547 0 2.907-0.915 2.916-2.663l-14.357-14.45c-1.768-1.831-2.749-2.163-5.024-0.045L52.139 59.805c-1.176 1.005-2.834 0.769-3.684-0.523l-12.642-20.7c-1.812-2.682-3.752-2.742-5.265-0.057L16.366 64.172z" data-fill-palette-color="quaternary"></path></g><g fill="#000000" data-fill-palette-color="quaternary"><path fill-rule="evenodd" clip-rule="evenodd" fill="#ffffff" d="M78.176 27.262c0 3.107-2.518 5.625-5.625 5.625s-5.625-2.519-5.625-5.625c0-3.106 2.519-5.625 5.625-5.625S78.176 24.156 78.176 27.262z" data-fill-palette-color="quaternary"></path></g></g></svg></g></svg></g></svg></g></svg></g><g></g></svg></g><defs></defs></svg><rect width="391.99999697189656" height="247.2" fill="none" stroke="none" visibility="hidden"></rect></g></svg></g></svg>